<?xml version="1.0" encoding="UTF-8"?>
<svg version="1.1" xmlns="http://www.w3.org/2000/svg" width="2560" height="2560">
<path d="M0 0 C844.8 0 1689.6 0 2560 0 C2560 844.8 2560 1689.6 2560 2560 C1715.2 2560 870.4 2560 0 2560 C0 1715.2 0 870.4 0 0 Z " fill="#FEFEFE" transform="translate(0,0)"/>
<path d="M0 0 C1.81564453 0.39276123 1.81564453 0.39276123 3.66796875 0.79345703 C35.4732843 7.72756698 65.27406865 17.81771576 95 31 C96.08909668 31.47856445 96.08909668 31.47856445 97.20019531 31.96679688 C113.823116 39.31849532 129.46765538 48.60089693 145 58 C142.13339483 60.21891869 139.2659264 61.96004013 136.02661133 63.59887695 C122.38050422 70.51390902 110.98027576 79.4216377 100 90 C99.29488281 90.64195312 98.58976563 91.28390625 97.86328125 91.9453125 C74.2591684 114.06519107 60.61204532 149.1165315 58.88964844 181.0456543 C57.9219942 215.90170809 67.50104041 252.42809954 91 279 C92.09828125 280.26070312 92.09828125 280.26070312 93.21875 281.546875 C95.44598961 284.06396087 97.71259647 286.53758161 100 289 C100.90105469 289.99966797 100.90105469 289.99966797 101.8203125 291.01953125 C125.70780059 316.40645041 162.22608524 329.76172267 196.48828125 331.22265625 C235.68332833 332.28309272 272.65064212 317.94067545 301.42041016 291.50244141 C307.97264611 285.27022192 313.79244637 278.3879521 319 271 C322.29555478 273.65523453 323.16643151 276.72440239 324.48828125 280.66796875 C324.71201416 281.33075333 324.93574707 281.9935379 325.16625977 282.67640686 C325.89278901 284.84325704 326.60395133 287.01470851 327.3125 289.1875 C327.55777435 289.93229614 327.80304871 290.67709229 328.05575562 291.44445801 C332.34466523 304.49551491 336.01101631 317.58723157 339 331 C339.25088379 332.08039551 339.50176758 333.16079102 339.76025391 334.27392578 C344.41196885 354.38347051 347.08547114 374.47668637 349 395 C349.12930908 396.37671875 349.12930908 396.37671875 349.26123047 397.78125 C349.70796691 402.85497612 349.90645281 407.90849941 350 413 C350.02578125 414.06492676 350.0515625 415.12985352 350.078125 416.22705078 C351.00664996 459.25837925 346.06208381 501.36765726 335 543 C334.72430176 544.0420459 334.44860352 545.0840918 334.16455078 546.15771484 C317.96084123 606.48820306 287.97802549 661.06743131 248.50439453 709.15478516 C247.1853248 710.7726899 245.88592354 712.40658924 244.58984375 714.04296875 C240.13942804 719.64031555 235.40176673 724.73401389 230.30053711 729.72924805 C227.56490997 732.41151843 224.95829018 735.12454344 222.5 738.0625 C218.26803351 743.02376169 213.37120862 747.28141556 208.52441406 751.62402344 C207.09441888 752.91477501 205.6832018 754.22624474 204.2734375 755.5390625 C197.70872032 761.63902094 190.83596084 767.20483583 183.73779297 772.66064453 C182.09029114 773.93041062 180.45205966 775.21111954 178.81640625 776.49609375 C175.56811065 779.03065649 172.29632894 781.52844833 169 784 C168.41009277 784.4439209 167.82018555 784.8878418 167.21240234 785.34521484 C131.24104662 812.17948678 89.45673316 831.98626694 47 846 C45.9078418 846.36077637 44.81568359 846.72155273 43.69042969 847.09326172 C-43.07311581 875.2738742 -139.70232986 873.890502 -226 845 C-227.18126465 844.60796387 -228.3625293 844.21592773 -229.57958984 843.81201172 C-246.95722516 837.99402235 -263.52266293 831.00219075 -280 823 C-281.78905962 822.14582731 -283.57812198 821.29166034 -285.3671875 820.4375 C-314.96463471 806.13709785 -342.96168299 787.26592656 -368 766 C-369.0584245 765.1156828 -370.11702863 764.23158057 -371.17578125 763.34765625 C-385.82411698 751.03901448 -399.52532594 737.85293469 -412.42382812 723.72460938 C-413.78950967 722.23031346 -415.16713046 720.74694582 -416.546875 719.265625 C-422.78193812 712.4999182 -428.40668825 705.29578778 -434 698 C-434.4837207 697.37319336 -434.96744141 696.74638672 -435.46582031 696.10058594 C-494.27959795 619.73972745 -525.58836102 525.8988807 -522.73571777 372.9128418 C-517.11205067 329.74671449 -505.4743999 287.47363446 -487 248 C-486.56171875 247.05253906 -486.1234375 246.10507813 -485.671875 245.12890625 C-470.58125697 212.5845789 -452.03665802 181.59925825 -429 154 C-428.16082031 152.98808594 -427.32164062 151.97617187 -426.45703125 150.93359375 C-420.63823748 143.96081372 -414.61925728 137.20309636 -408.43554688 130.55322266 C-406.92013585 128.91358916 -405.41994273 127.26095577 -403.921875 125.60546875 C-399.09271629 120.28597866 -394.30403922 115.14866394 -388.78125 110.53125 C-386.97565261 108.97906979 -385.3391951 107.33902322 -383.6875 105.625 C-380.01296859 101.89227465 -376.00513992 98.64613074 -371.92578125 95.3671875 C-369.07542658 93.06102604 -366.28915527 90.69205904 -363.5 88.3125 C-342.9369945 71.1943279 -320.41195038 56.86744235 -297 44 C-296.12069824 43.51176758 -295.24139648 43.02353516 -294.33544922 42.52050781 C-245.10567263 15.33886229 -188.89445007 -1.62242602 -133 -7 C-131.95295898 -7.10296387 -130.90591797 -7.20592773 -129.82714844 -7.31201172 C-86.51494137 -11.40282447 -42.52756943 -9.38961312 0 0 Z " fill="#CB0001" transform="translate(853,855)"/>
<path d="M0 0 C0.95745117 0.00563965 1.91490234 0.0112793 2.90136719 0.01708984 C30.23085257 0.47698288 54.87961175 10.52623781 75.4375 28.3125 C76.66919922 29.37210938 76.66919922 29.37210938 77.92578125 30.453125 C95.50642847 46.81592988 108.39448221 72.76578466 109.56030273 96.84936523 C110.38062848 125.79514522 104.25295984 151.45378568 85.4375 174.3125 C84.37208984 175.60800781 84.37208984 175.60800781 83.28515625 176.9296875 C69.60260705 192.81431062 52.34796518 203.19019717 32.4375 209.3125 C31.75526367 209.52277832 31.07302734 209.73305664 30.37011719 209.94970703 C3.49337161 217.85500039 -25.94065559 213.47415323 -50.45166016 200.296875 C-59.56171938 195.13923915 -67.1064755 188.60159858 -74.5625 181.3125 C-75.24054687 180.68472656 -75.91859375 180.05695313 -76.6171875 179.41015625 C-81.38419475 174.90798274 -85.01248057 169.80751894 -88.5625 164.3125 C-89.15160156 163.40628906 -89.74070312 162.50007813 -90.34765625 161.56640625 C-104.72338578 138.28088391 -109.00121809 109.90015921 -103.10595703 83.24853516 C-96.60098085 56.32255786 -80.26431186 32.43235604 -56.92578125 17.30078125 C-45.30129621 10.42869892 -33.72540785 5.43988442 -20.5625 2.3125 C-19.78366455 2.12631104 -19.0048291 1.94012207 -18.20239258 1.74829102 C-12.09405355 0.40000812 -6.24717338 -0.03917074 0 0 Z " fill="#161616" transform="translate(1052.5625,937.6875)"/>
<path d="M0 0 C2.49510222 2.01709316 4.70483077 4.11686062 6.85546875 6.5 C7.3246875 6.95375 7.79390625 7.4075 8.27734375 7.875 C19.54580573 19.49197112 21.23828278 36.08904435 21.22875977 51.44287109 C20.86896232 68.80271179 15.40012324 83.27266392 2.85546875 95.5 C-7.04055084 104.63177253 -19.25633106 106.94302099 -32.3515625 106.7109375 C-41.12327591 106.22311822 -48.47625087 103.26257167 -55.14453125 97.5 C-57.45453125 94.86 -59.76453125 92.22 -62.14453125 89.5 C-62.47453125 112.27 -62.80453125 135.04 -63.14453125 158.5 C-76.67453125 158.5 -90.20453125 158.5 -104.14453125 158.5 C-104.14453125 103.72 -104.14453125 48.94 -104.14453125 -7.5 C-90.61453125 -7.5 -77.08453125 -7.5 -63.14453125 -7.5 C-62.64953125 0.42 -62.64953125 0.42 -62.14453125 8.5 C-61.15453125 7.30375 -60.16453125 6.1075 -59.14453125 4.875 C-43.94892821 -12.33044232 -18.46108604 -13.45070021 0 0 Z " fill="#171717" transform="translate(1402.14453125,1518.5)"/>
<path d="M0 0 C13.53 0 27.06 0 41 0 C41.85464844 5.02992187 42.70929688 10.05984375 43.58984375 15.2421875 C44.13181008 18.42323786 44.67396374 21.60425399 45.21679688 24.78515625 C46.07891034 29.83709082 46.94031721 34.88913894 47.79760742 39.94189453 C48.48859871 44.01424311 49.18268236 48.08605344 49.87893867 52.15750504 C50.14439299 53.71308646 50.40872113 55.26886048 50.67191887 56.82482529 C51.03996185 58.99945593 51.41195654 61.17337528 51.78491211 63.34716797 C51.99587021 64.58626923 52.20682831 65.82537048 52.42417908 67.10202026 C52.85240493 69.92508144 52.85240493 69.92508144 54 72 C54.17810211 71.20309502 54.17810211 71.20309502 54.35980225 70.39009094 C57.57423024 56.04315451 60.95103041 41.74052501 64.44921875 27.46020508 C65.26693406 24.11829235 66.07882339 20.77499421 66.890625 17.43164062 C67.41110915 15.30199796 67.93192894 13.1724373 68.453125 11.04296875 C68.69476379 10.04533005 68.93640259 9.04769135 69.18536377 8.01982117 C69.4093988 7.10988907 69.63343384 6.19995697 69.86425781 5.26245117 C70.06013489 4.46054855 70.25601196 3.65864594 70.45782471 2.83244324 C71 1 71 1 72 0 C73.35094982 -0.09268999 74.70667091 -0.11747326 76.06079102 -0.11352539 C76.92160782 -0.11344986 77.78242462 -0.11337433 78.66932678 -0.11329651 C79.60473801 -0.10813522 80.54014923 -0.10297394 81.50390625 -0.09765625 C82.45692123 -0.0962413 83.40993622 -0.09482635 84.39183044 -0.09336853 C87.44875165 -0.08775152 90.50560077 -0.07519616 93.5625 -0.0625 C95.62955624 -0.05748719 97.69661362 -0.05292391 99.76367188 -0.04882812 C104.84247588 -0.03777656 109.9212257 -0.02050055 115 0 C116.52638 3.6024748 117.62952018 7.15297165 118.57226562 10.94848633 C118.86597046 12.12353226 119.15967529 13.29857819 119.46228027 14.50923157 C119.77379028 15.77075546 120.08530029 17.03227936 120.40625 18.33203125 C120.73459387 19.65101209 121.06325306 20.96991447 121.39221191 22.28874207 C122.25599617 25.75530152 123.1155416 29.2228983 123.97418213 32.69073486 C124.84354157 36.19874904 125.7168402 39.7057819 126.58984375 43.21289062 C127.87129167 48.36250514 129.15058984 53.51264609 130.42773438 58.66333008 C131.61309597 63.44358397 132.80314692 68.22261097 134 73 C135.37116453 65.49709852 136.74012731 57.99379756 138.10766602 50.49023438 C138.57169503 47.94554876 139.03620076 45.40095003 139.5012207 42.85644531 C140.17529234 39.16755383 140.84756291 35.47833763 141.51953125 31.7890625 C141.72278519 30.67890778 141.92603912 29.56875305 142.13545227 28.42495728 C143.85594983 18.96319545 145.41838667 9.48968 147 0 C159.54 0 172.08 0 185 0 C182.74989611 11.25051945 182.74989611 11.25051945 181.59887695 15.75561523 C181.34133133 16.76885361 181.08378571 17.78209198 180.81843567 18.82603455 C180.54448471 19.89277908 180.27053375 20.95952362 179.98828125 22.05859375 C179.55131172 23.77249046 179.55131172 23.77249046 179.10551453 25.52101135 C178.17691707 29.16046064 177.24471584 32.79897606 176.3125 36.4375 C175.70615523 38.81309363 175.10003378 41.18874427 174.49414062 43.56445312 C170.37002975 59.72017608 166.1949376 75.86254028 162 92 C161.47826997 94.00773073 160.9565414 96.01546183 160.43481445 98.02319336 C159.99825751 99.70297468 159.56165636 101.38274452 159.125 103.0625 C158.92283371 103.84456314 158.72066742 104.62662628 158.51237488 105.43238831 C157.1139645 110.772071 157.1139645 110.772071 156 113 C140.82 113 125.64 113 110 113 C109.19175781 109.75542969 108.38351562 106.51085938 107.55078125 103.16796875 C106.7500501 99.95720189 105.9488966 96.74654068 105.14770508 93.53588867 C104.59941403 91.33775606 104.05154859 89.13951724 103.50415039 86.94116211 C100.09907408 73.26779886 96.62928926 59.61567859 93 46 C90.71591004 52.51573429 88.86694385 59.07865549 87.1875 65.7734375 C86.80501099 67.28002426 86.80501099 67.28002426 86.41479492 68.81704712 C85.60670845 72.00224225 84.80313535 75.18855323 84 78.375 C83.1960367 81.55408955 82.39110203 84.73292962 81.58520508 87.91152954 C81.08633989 89.88025409 80.58869295 91.84928793 80.0925293 93.81869507 C78.46993632 100.23677676 76.74256537 106.61059366 75 113 C59.82 113 44.64 113 29 113 C27.23378744 107.70136232 25.58424479 102.71016885 24.25415039 97.34130859 C23.94695572 96.10907562 23.63976105 94.87684265 23.32325745 93.60726929 C22.99802186 92.28766736 22.67282239 90.96805654 22.34765625 89.6484375 C22.0031509 88.26225265 21.65829007 86.8761561 21.31309509 85.49014282 C20.40905648 81.85697635 19.50905578 78.22282285 18.61016846 74.58837891 C17.17676766 68.79535022 15.73742722 63.00379588 14.29760551 57.21236038 C13.80227329 55.2173775 13.30882422 53.22193685 12.81568909 51.22640991 C10.64032039 42.45653242 8.34716725 33.72505196 6 25 C4.91023386 20.89750522 3.82796328 16.79311014 2.75 12.6875 C2.481875 11.67494141 2.21375 10.66238281 1.9375 9.61914062 C1.68484375 8.65556641 1.4321875 7.69199219 1.171875 6.69921875 C0.9459668 5.84158936 0.72005859 4.98395996 0.48730469 4.1003418 C0 2 0 2 0 0 Z " fill="#181818" transform="translate(1376,1020)"/>
<path d="M0 0 C13.53 0 27.06 0 41 0 C41.33 17.16 41.66 34.32 42 52 C43.98 49.69 45.96 47.38 48 45 C56.86756924 37.15624695 68.31282179 34.31296271 79.9375 34.74609375 C91.35314179 35.69254364 102.12072616 39.28448247 110 48 C120.50630483 61.11062191 121.60731333 75.79857122 121.390625 91.87109375 C121.383141 93.53116668 121.37745832 95.1912486 121.37347412 96.85133362 C121.35838724 101.16685485 121.31925771 105.48181553 121.2746582 109.79711914 C121.2260358 115.0035672 121.20809051 120.21020538 121.18484497 125.41681671 C121.14639134 133.27826461 121.06962224 141.13848886 121 149 C107.47 149 93.94 149 80 149 C79.94392578 141.74128906 79.94392578 141.74128906 79.88671875 134.3359375 C79.85643101 131.26428777 79.82527802 128.19269543 79.79101562 125.12109375 C79.7367541 120.24921608 79.68564178 115.37745192 79.65356445 110.50537109 C79.62749242 106.57592069 79.58706296 102.64685291 79.53681374 98.71763992 C79.52017127 97.22104285 79.50864068 95.72437963 79.50238609 94.22770309 C79.49271599 92.12584384 79.46462473 90.02495763 79.43237305 87.92333984 C79.42126999 86.72865082 79.41016693 85.53396179 79.39872742 84.30307007 C78.87548188 79.96848811 77.46067495 76.5647434 74.46484375 73.35546875 C69.45164515 69.52184629 67.09215165 68.80563812 60.75 68.6875 C59.44546875 68.65011719 58.1409375 68.61273437 56.796875 68.57421875 C52.42106058 69.06492222 50.38201286 70.23876777 47 73 C43.00055169 78.29656668 41.88081921 81.93190895 41.79467773 88.4909668 C41.78477814 89.1448941 41.77487854 89.79882141 41.76467896 90.4725647 C41.73312217 92.6314127 41.70832968 94.79028271 41.68359375 96.94921875 C41.66301919 98.44709338 41.64202258 99.94496228 41.62062073 101.44282532 C41.56545191 105.3833857 41.51601979 109.32399803 41.46777344 113.26464844 C41.40868358 117.99374315 41.34248418 122.72274302 41.27747345 127.45175934 C41.17952921 134.63444825 41.09062864 141.81719827 41 149 C27.47 149 13.94 149 0 149 C0 99.83 0 50.66 0 0 Z " fill="#181818" transform="translate(1440,1475)"/>
<path d="M0 0 C13.53 0 27.06 0 41 0 C41.33 17.16 41.66 34.32 42 52 C43.65 50.02 45.3 48.04 47 46 C58.20144304 36.44910072 70.54441011 34.06522744 85 35 C95.95855183 36.93553643 105.09360797 41.08096678 112 50 C120.33026235 63.60009433 121.30231214 76.40058374 121.1953125 92.04296875 C121.19157416 93.66392338 121.18873107 95.2848803 121.18673706 96.90583801 C121.17916519 101.13573642 121.1595735 105.36549362 121.1373291 109.59533691 C121.11309748 114.68997531 121.10405894 119.78466138 121.09242249 124.87934113 C121.07314422 132.5863251 121.03477714 140.2930003 121 148 C107.8 148 94.6 148 81 148 C80.98582031 143.42382812 80.97164062 138.84765625 80.95703125 134.1328125 C80.93695002 131.21607046 80.9154102 128.29948263 80.88867188 125.3828125 C80.8464629 120.76361138 80.80936221 116.14480164 80.80444336 111.52539062 C80.8001327 107.79674299 80.77144494 104.06897502 80.72656822 100.34060287 C80.7136807 98.9254661 80.70925422 97.51022356 80.71384621 96.09503555 C80.73522133 87.49920134 80.29943136 80.08951177 75 73 C70.0692843 68.94620469 64.65330915 67.63745688 58.4140625 67.71875 C53.15263835 68.33173145 49.27362253 70.69286108 45.625 74.4375 C42.59863294 79.20984805 41.74593541 82.97929637 41.68115234 88.6262207 C41.66608391 89.59291939 41.66608391 89.59291939 41.65071106 90.57914734 C41.61999064 92.69468348 41.60287552 94.81009372 41.5859375 96.92578125 C41.56721683 98.39838231 41.54764274 99.87097275 41.5272522 101.34355164 C41.47601977 105.20844242 41.43634672 109.07336795 41.39910889 112.93841553 C41.35195653 117.58166963 41.29039695 122.22475253 41.23126221 126.86786652 C41.14315829 133.91184157 41.07331694 140.95578561 41 148 C27.47 148 13.94 148 0 148 C0 99.16 0 50.32 0 0 Z " fill="#161616" transform="translate(1387,1148)"/>
<path d="M0 0 C10.59793844 9.56223082 16.40346054 24.55144539 17.3671875 38.51171875 C17.84695625 53.31409432 14.92466174 66.3373352 6.09375 78.55078125 C5.64386719 79.18242188 5.19398437 79.8140625 4.73046875 80.46484375 C-4.94614953 92.84001192 -20.80840295 98.53251983 -35.90625 100.55078125 C-55.05851673 102.1221325 -73.57769409 97.82449998 -88.46875 85.23828125 C-99.59444026 74.31827602 -104.89336783 60.32403528 -105.14819336 44.87744141 C-105.20197757 28.51074247 -101.86493359 14.61218402 -90.34375 2.23828125 C-65.45229888 -20.88595204 -26.46361303 -20.11885335 0 0 Z " fill="#171717" transform="translate(1670.90625,1033.44921875)"/>
<path d="M0 0 C11.16179457 9.06628525 17.49151218 22.41654855 19.3828125 36.4921875 C20.9045794 51.92121301 18.14624166 67.55069065 8.58984375 80.05859375 C-1.60032205 91.88487693 -14.18683811 100.07566528 -29.953125 102.09375 C-50.77749881 103.63273375 -69.10340579 101.0961787 -85.7109375 87.09375 C-96.99511074 76.2858568 -102.3194955 62.49025571 -102.67993164 47.08129883 C-102.84697015 29.97629268 -99.53890184 17.69768349 -88.3359375 4.34375 C-65.32889983 -18.96953776 -25.58761198 -18.14238709 0 0 Z " fill="#171717" transform="translate(1679.3359375,1522.65625)"/>
<path d="M0 0 C8.86710687 8.01941683 16.38263622 21.03915806 17.54003906 33.14868164 C18.46742986 52.11683938 15.99213727 69.52200411 2.76171875 84.140625 C-11.47956414 97.36270582 -29.78538638 101.46081055 -48.671875 101.16796875 C-65.30477248 100.5259076 -79.11080316 93.79110587 -90.67578125 81.890625 C-101.05782863 70.37490578 -105.44587289 56.09195608 -104.89453125 40.5625 C-103.57615932 24.45952854 -98.06996718 9.55780776 -85.5078125 -1.12109375 C-59.83810761 -19.14299691 -24.89731106 -19.62707733 0 0 Z " fill="#171717" transform="translate(1901.67578125,1524.109375)"/>
<path d="M0 0 C8.55377392 7.05795268 13.74235572 16.7035657 17.23828125 27.0859375 C17.65078125 28.2821875 18.06328125 29.4784375 18.48828125 30.7109375 C22.2215894 47.39310725 17.86034491 64.72778159 9.23828125 79.0859375 C0.51229989 91.75400926 -14.13318135 98.7557334 -28.89453125 101.58203125 C-47.1075441 103.95524202 -66.25471628 102.04032716 -81.43994141 90.84912109 C-92.85451901 81.78014314 -100.59828922 69.69423786 -102.76171875 55.0859375 C-103.88300684 36.5174949 -101.97895196 20.43978135 -89.51171875 5.8359375 C-66.10844808 -18.77650215 -26.94045954 -18.67160562 0 0 Z " fill="#171717" transform="translate(1473.76171875,1358.9140625)"/>
<path d="M0 0 C13.53 0 27.06 0 41 0 C41.02578125 4.74375 41.0515625 9.4875 41.078125 14.375 C41.10331102 17.39198007 41.12965717 20.40886162 41.16015625 23.42578125 C41.20838684 28.20752248 41.2524704 32.98903548 41.27099609 37.77099609 C41.28621313 41.62921582 41.32074656 45.48683584 41.36830902 49.3447876 C41.38307116 50.81181608 41.39103804 52.27893021 41.39188385 53.74603271 C41.40106755 61.69280627 41.47507594 68.20324338 46 75 C51.29912325 80.04062944 55.8554536 80.36340883 62.921875 80.26953125 C68.10497422 79.81568119 71.75544649 78.28722011 75.41679382 74.55627441 C80.3122388 67.82810888 79.73148835 60.30029677 79.70703125 52.34375 C79.72016351 50.83058699 79.73547241 49.31744146 79.75285339 47.80432129 C79.79253856 43.84560817 79.80288306 39.88735533 79.80688477 35.9284668 C79.81789729 31.16579104 79.86576358 26.403357 79.90737152 21.64086914 C79.9663102 14.42704093 79.97875822 7.21448084 80 0 C93.53 0 107.06 0 121 0 C121 37.29 121 74.58 121 113 C107.47 113 93.94 113 80 113 C79.67 107.72 79.34 102.44 79 97 C78.195625 98.03125 77.39125 99.0625 76.5625 100.125 C69.10754087 108.7699526 59.25165857 113.01301241 48 114 C36.08242441 114.86788739 24.54014 112.42010889 15 105 C5.35485117 96.22310332 0.58207104 83.89481795 -0.2593689 71.03649902 C-0.38194365 66.49783449 -0.33841025 61.96138795 -0.29296875 57.421875 C-0.2873602 55.75751125 -0.28309607 54.09314248 -0.28010559 52.42877197 C-0.26875572 48.08866235 -0.23937587 43.74886311 -0.20599365 39.40887451 C-0.16962396 34.17992057 -0.15608457 28.95086174 -0.13863373 23.72181702 C-0.10973064 15.81433007 -0.05217573 7.90752158 0 0 Z " fill="#181818" transform="translate(1508,1347)"/>
<path d="M0 0 C10.10882853 8.19895444 16.97336159 20.4936029 18.796875 33.41015625 C18.93109819 36.3075633 18.93663351 39.19760894 18.921875 42.09765625 C18.92574219 42.86916016 18.92960937 43.64066406 18.93359375 44.43554688 C18.92360046 50.15670533 18.92360046 50.15670533 17.796875 52.41015625 C-7.613125 52.41015625 -33.023125 52.41015625 -59.203125 52.41015625 C-56.89813218 62.45141258 -56.89813218 62.45141258 -51.203125 69.41015625 C-45.30352558 71.37668939 -38.61225585 70.90859712 -32.578125 69.66015625 C-29.82480857 68.21104234 -29.17422343 67.32345153 -28.203125 64.41015625 C-27.708125 62.92515625 -27.708125 62.92515625 -27.203125 61.41015625 C-12.683125 61.41015625 1.836875 61.41015625 16.796875 61.41015625 C12.76750102 76.1845275 6.4348024 86.71750745 -6.55859375 94.99609375 C-23.44063815 104.02312488 -43.02499576 106.10717811 -61.34375 100.7265625 C-75.07624777 96.2665813 -85.91027368 87.71480989 -92.95703125 75.05859375 C-99.85149939 60.40514736 -102.01613286 42.09392324 -97.203125 26.41015625 C-96.95820312 25.60707031 -96.71328125 24.80398438 -96.4609375 23.9765625 C-91.83988807 10.86995769 -82.33295879 0.15549896 -69.890625 -5.90234375 C-47.26124785 -15.4482994 -20.33839337 -14.67681933 0 0 Z " fill="#171717" transform="translate(1845.203125,1194.58984375)"/>
<path d="M0 0 C0.89460938 0.350625 1.78921875 0.70125 2.7109375 1.0625 C14.87307594 6.45126288 24.13141518 16.87284543 29.3125 29 C33.02768692 39.22075029 34.14047104 49.29764482 32 60 C6.26 60 -19.48 60 -46 60 C-43.62558276 69.81975661 -43.62558276 69.81975661 -37.26953125 77.1328125 C-32.43173989 78.98133175 -27.0788164 78.5116718 -22 78 C-18.18459701 76.22386413 -16.51855645 75.30058186 -14.95776367 71.38598633 C-13 69 -13 69 -11.07192993 68.56210327 C-8.46792079 68.41894591 -5.90780095 68.43899289 -3.30078125 68.51171875 C-2.35059616 68.51879349 -1.40041107 68.52586823 -0.4214325 68.53315735 C2.61567676 68.5611633 5.65094735 68.62391356 8.6875 68.6875 C10.7454161 68.71257484 12.80336107 68.73538942 14.86132812 68.75585938 C19.90826134 68.81101045 24.95381888 68.89732618 30 69 C28.2647531 82.02481653 21.37252803 89.7690837 12.1875 98.75 C-2.49005447 109.11062669 -19.45632044 113.24753204 -37.16796875 110.68652344 C-52.25583908 107.9603879 -65.29147983 101.62059451 -75 89.50390625 C-85.7759166 73.87418238 -87.15714407 56.18556161 -84.69824219 37.73583984 C-82.30957628 25.13256893 -73.84181995 13.88151202 -64 6 C-45.26512848 -5.66262225 -20.64199565 -8.45709795 0 0 Z " fill="#171717" transform="translate(1703,1187)"/>
<path d="M0 0 C8.31179093 7.79492326 11.86989623 15.88523618 14.32421875 26.9296875 C1.78421875 26.9296875 -10.75578125 26.9296875 -23.67578125 26.9296875 C-24.99578125 24.6196875 -26.31578125 22.3096875 -27.67578125 19.9296875 C-31.98737584 16.2459054 -37.13753101 15.31613265 -42.6875 15.61328125 C-45.51343122 16.0629874 -46.91943426 16.63880013 -48.67578125 18.9296875 C-49.12150674 21.98609086 -49.39880834 23.95517272 -47.5078125 26.50390625 C-45.0829746 28.39104022 -42.89815139 28.94834718 -39.92578125 29.7421875 C-38.683125 30.0825 -37.44046875 30.4228125 -36.16015625 30.7734375 C-32.82582799 31.64751439 -29.47967165 32.46486834 -26.12890625 33.2734375 C4.91071226 40.85673253 4.91071226 40.85673253 13.32421875 53.9296875 C17.31111005 61.54968453 17.56755159 70.42670308 15.19921875 78.6171875 C11.20693028 88.96756503 3.62184085 94.50132494 -6.11328125 99.1796875 C-21.54714838 105.51075891 -43.07339227 105.23069646 -58.55517578 99.19726562 C-70.37613631 94.14541777 -79.11440228 87.79579807 -84.67578125 75.9296875 C-85.81034253 71.95872303 -86.77276971 67.95907141 -87.67578125 63.9296875 C-82.21334987 63.73159389 -76.75301606 63.58661343 -71.2878418 63.49023438 C-69.43004945 63.45005538 -67.57250929 63.39549825 -65.71557617 63.32617188 C-63.04152315 63.22885552 -60.37081573 63.1837119 -57.6953125 63.1484375 C-56.45440605 63.08650208 -56.45440605 63.08650208 -55.18843079 63.02331543 C-52.76954359 63.02144261 -50.95279822 63.10291369 -48.67578125 63.9296875 C-46.98216198 65.85255367 -45.8893874 67.70807318 -44.77592468 70.01184082 C-42.86382069 73.34515372 -40.24713829 73.9611839 -36.67578125 74.9296875 C-31.29263822 75.65995884 -27.35372237 74.73645217 -22.67578125 71.9296875 C-22.34197311 68.55532564 -22.34197311 68.55532564 -22.67578125 64.9296875 C-25.45945348 62.23290446 -28.17382472 61.31695322 -31.89453125 60.4296875 C-33.41820312 60.0584375 -33.41820312 60.0584375 -34.97265625 59.6796875 C-36.55820313 59.3084375 -36.55820313 59.3084375 -38.17578125 58.9296875 C-40.24869792 58.4296875 -42.32161458 57.9296875 -44.39453125 57.4296875 C-47.56514323 56.6707289 -50.73636019 55.91551996 -53.91088867 55.1730957 C-64.51484983 52.63238365 -76.80081387 48.64589353 -82.94921875 38.9140625 C-87.17435129 30.82338316 -88.10775009 22.09750509 -86.02734375 13.13671875 C-82.51487126 3.45490356 -75.65272352 -3.25047773 -66.67578125 -8.0703125 C-45.92534955 -16.9832496 -17.83128539 -13.79646898 0 0 Z " fill="#171717" transform="translate(2019.67578125,1522.0703125)"/>
<path d="M0 0 C3.17625 0.020625 6.3525 0.04125 9.625 0.0625 C9.625 11.2825 9.625 22.5025 9.625 34.0625 C3.685 34.5575 3.685 34.5575 -2.375 35.0625 C-5.62447464 36.50601804 -5.62447464 36.50601804 -7.375 39.0625 C-7.705 41.0425 -8.035 43.0225 -8.375 45.0625 C-2.435 45.0625 3.505 45.0625 9.625 45.0625 C9.625 55.9525 9.625 66.8425 9.625 78.0625 C3.355 78.0625 -2.915 78.0625 -9.375 78.0625 C-9.375 104.4625 -9.375 130.8625 -9.375 158.0625 C-22.905 158.0625 -36.435 158.0625 -50.375 158.0625 C-50.375 131.6625 -50.375 105.2625 -50.375 78.0625 C-54.665 78.0625 -58.955 78.0625 -63.375 78.0625 C-63.375 67.5025 -63.375 56.9425 -63.375 46.0625 C-59.085 46.0625 -54.795 46.0625 -50.375 46.0625 C-50.49875 43.9896875 -50.49875 43.9896875 -50.625 41.875 C-50.56038557 30.43824668 -46.24161417 20.31188567 -38.375 12.0625 C-26.96656752 2.78018448 -14.35690187 -0.13209004 0 0 Z " fill="#171717" transform="translate(1353.375,1301.9375)"/>
<path d="M0 0 C13.53 0 27.06 0 41 0 C41 8.91 41 17.82 41 27 C47.93 27 54.86 27 62 27 C62 37.89 62 48.78 62 60 C55.07 60 48.14 60 41 60 C41.11992076 65.62351839 41.24258353 71.24683633 41.37231445 76.87011719 C41.41560857 78.78284146 41.45728756 80.695603 41.49731445 82.60839844 C41.5551508 85.35883818 41.61880676 88.10909128 41.68359375 90.859375 C41.70030624 91.71368103 41.71701874 92.56798706 41.73423767 93.44818115 C41.7641555 94.64897308 41.7641555 94.64897308 41.79467773 95.87402344 C41.81799416 96.92659332 41.81799416 96.92659332 41.84178162 98.00042725 C42.00726836 100.09185797 42.43584497 101.98256308 43 104 C49.49987431 105.62496858 56.31313048 105.58207066 63 106 C63 117.22 63 128.44 63 140 C25.07781493 140.82439533 25.07781493 140.82439533 11 129 C2.15073995 120.24349949 0.02175401 108.19402038 -0.11352539 96.21459961 C-0.11336999 94.52717271 -0.10789779 92.83973958 -0.09765625 91.15234375 C-0.0962413 90.25504044 -0.09482635 89.35773712 -0.09336853 88.4332428 C-0.0878251 85.60129286 -0.07528358 82.76942555 -0.0625 79.9375 C-0.05747767 78.00325636 -0.05291606 76.06901147 -0.04882812 74.13476562 C-0.03787429 69.42314583 -0.02064953 64.71158687 0 60 C-4.95 60 -9.9 60 -15 60 C-15 49.11 -15 38.22 -15 27 C-10.05 27 -5.1 27 0 27 C0 18.09 0 9.18 0 0 Z " fill="#181818" transform="translate(1722,1484)"/>
<path d="M0 0 C13.53 0 27.06 0 41 0 C41 8.91 41 17.82 41 27 C47.6 27 54.2 27 61 27 C61 37.89 61 48.78 61 60 C54.07 60 47.14 60 40 60 C40.02809813 65.60685482 40.07116358 71.20943514 40.15258789 76.81518555 C40.17575277 78.72102307 40.19016007 80.62698833 40.19555664 82.53295898 C40.20485741 85.27668723 40.24587071 88.01841063 40.29296875 90.76171875 C40.2890361 91.61086349 40.28510345 92.46000824 40.28105164 93.33488464 C40.30069473 94.13533707 40.32033783 94.93578949 40.34057617 95.76049805 C40.34723801 96.45999069 40.35389984 97.15948334 40.36076355 97.88017273 C41.07931255 100.86739066 41.07931255 100.86739066 46 105 C51.28 105.33 56.56 105.66 62 106 C62 117.22 62 128.44 62 140 C23.24546633 140.47551575 23.24546633 140.47551575 8.9375 127.8125 C2.84261404 121.00782985 -0.13782681 111.13374525 -0.11352539 102.11791992 C-0.11344986 101.17732224 -0.11337433 100.23672455 -0.11329651 99.2676239 C-0.10813522 98.2653627 -0.10297394 97.2631015 -0.09765625 96.23046875 C-0.0962413 95.19432938 -0.09482635 94.15819 -0.09336853 93.09065247 C-0.08778242 89.78957196 -0.07523242 86.48855992 -0.0625 83.1875 C-0.05748321 80.94596452 -0.05292061 78.70442798 -0.04882812 76.46289062 C-0.03781753 70.97523414 -0.02056239 65.48762867 0 60 C-4.95 60 -9.9 60 -15 60 C-15 49.11 -15 38.22 -15 27 C-10.05 27 -5.1 27 0 27 C0 18.09 0 9.18 0 0 Z " fill="#171717" transform="translate(1306,993)"/>
<path d="M0 0 C13.2 0 26.4 0 40 0 C40 8.91 40 17.82 40 27 C46.93 27 53.86 27 61 27 C61 37.89 61 48.78 61 60 C54.07 60 47.14 60 40 60 C40.02809813 65.60685482 40.07116358 71.20943514 40.15258789 76.81518555 C40.17575277 78.72102307 40.19016007 80.62698833 40.19555664 82.53295898 C40.20485741 85.27668723 40.24587071 88.01841063 40.29296875 90.76171875 C40.2890361 91.61086349 40.28510345 92.46000824 40.28105164 93.33488464 C40.30069473 94.13533707 40.32033783 94.93578949 40.34057617 95.76049805 C40.34723801 96.45999069 40.35389984 97.15948334 40.36076355 97.88017273 C41.07931255 100.86739066 41.07931255 100.86739066 46 105 C51.28 105.33 56.56 105.66 62 106 C62 116.89 62 127.78 62 139 C57.6275 139.061875 53.255 139.12375 48.75 139.1875 C47.39745117 139.21481201 46.04490234 139.24212402 44.65136719 139.27026367 C31.56242975 139.35885692 19.95879963 137.10334324 9.96484375 128.18359375 C1.04286842 118.80699548 -0.16324737 107.74502036 -0.09765625 95.3515625 C-0.0962413 94.33903412 -0.09482635 93.32650574 -0.09336853 92.28329468 C-0.08779143 89.06383249 -0.07524312 85.84444101 -0.0625 82.625 C-0.05748204 80.43619892 -0.05291965 78.24739675 -0.04882812 76.05859375 C-0.03782949 70.70570211 -0.02058063 65.35286303 0 60 C-4.95 60 -9.9 60 -15 60 C-15 49.11 -15 38.22 -15 27 C-10.05 27 -5.1 27 0 27 C0 18.09 0 9.18 0 0 Z " fill="#161616" transform="translate(1306,1157)"/>
<path d="M0 0 C13.53 0 27.06 0 41 0 C41.495 9.405 41.495 9.405 42 19 C43.3921875 17.2365625 43.3921875 17.2365625 44.8125 15.4375 C51.52989287 7.80102722 61.02296369 2.16482863 71 0 C73.97 0 76.94 0 80 0 C80 13.86 80 27.72 80 42 C69.5625 42.3125 69.5625 42.3125 66.33032227 42.38793945 C58.8136796 42.67375129 52.03726119 43.54434202 46.0625 48.375 C42.66298263 52.70165847 41.75370275 56.34667664 41.68115234 61.80004883 C41.66128265 62.94085403 41.64141296 64.08165924 41.62094116 65.2570343 C41.60361435 67.08853279 41.60361435 67.08853279 41.5859375 68.95703125 C41.56657135 70.21513107 41.5472052 71.4732309 41.5272522 72.76945496 C41.47766923 76.10174319 41.43636902 79.43392331 41.39910889 82.76635742 C41.35898377 86.17181199 41.3080354 89.57710372 41.2578125 92.98242188 C41.16019646 99.65488512 41.08057374 106.32722207 41 113 C27.47 113 13.94 113 0 113 C0 75.71 0 38.42 0 0 Z " fill="#181818" transform="translate(1652,1347)"/>
<path d="M0 0 C0 13.86 0 27.72 0 42 C-9.9 42.495 -9.9 42.495 -20 43 C-28.38087333 44.84452589 -28.38087333 44.84452589 -35 50 C-38.64269825 56.46062412 -38.47251017 62.63909906 -38.51171875 69.93359375 C-38.52966995 71.16666763 -38.54762115 72.39974152 -38.56611633 73.67018127 C-38.62011955 77.5925865 -38.65408421 81.5148707 -38.6875 85.4375 C-38.71905677 88.10356137 -38.75517204 90.76953685 -38.79101562 93.43554688 C-38.87829373 99.95704774 -38.9384517 106.47800285 -39 113 C-52.53 113 -66.06 113 -80 113 C-80 76.04 -80 39.08 -80 1 C-66.47 1 -52.94 1 -39 1 C-38.505 10.405 -38.505 10.405 -38 20 C-37.05125 18.824375 -36.1025 17.64875 -35.125 16.4375 C-25.93396409 5.98893805 -13.93044693 0 0 0 Z " fill="#161616" transform="translate(1610,1183)"/>
<path d="M0 0 C5.94 0 11.88 0 18 0 C19.5697294 3.94980612 21.13736506 7.90031181 22.69970703 11.85302734 C23.2320106 13.19791391 23.76553404 14.54231832 24.30029297 15.88623047 C25.06798081 17.81613217 25.8312893 19.74771573 26.59375 21.6796875 C27.05458984 22.84226074 27.51542969 24.00483398 27.99023438 25.20263672 C29 28 29 28 29 30 C29.66 30 30.32 30 31 30 C31.16798096 29.4013916 31.33596191 28.8027832 31.5090332 28.18603516 C33.37092369 21.74702318 35.64797682 15.5745593 38.1875 9.375 C38.73954102 8.01181641 38.73954102 8.01181641 39.30273438 6.62109375 C40.19782169 4.41243673 41.09833284 2.20597903 42 0 C47.61 0 53.22 0 59 0 C59 16.17 59 32.34 59 49 C54.38 49 49.76 49 45 49 C44.67 41.41 44.34 33.82 44 26 C41.36 33.59 38.72 41.18 36 49 C32.04 49 28.08 49 24 49 C21.36 41.74 18.72 34.48 16 27 C15.67 34.26 15.34 41.52 15 49 C10.05 49 5.1 49 0 49 C0 32.83 0 16.66 0 0 Z " fill="#C90304" transform="translate(2183,1575)"/>
<path d="M0 0 C5.62038596 3.7735451 10.23632881 8.33111832 12 15 C12.96228654 22.90879249 12.64816487 30.31499884 8 37 C2.71076289 42.99134823 -2.90449597 46.37188385 -10.8203125 47.34765625 C-18.27363408 47.71936922 -23.9089992 46.3762631 -30 42 C-35.11447346 37.29354576 -38.60964803 32.79912321 -39.3359375 25.73046875 C-39.42979388 17.21769523 -39.06853222 11.44658167 -33.234375 5.0703125 C-23.89323397 -3.79273863 -11.69814167 -5.94392063 0 0 Z " fill="#C70606" transform="translate(2165,1577)"/>
<path d="M0 0 C6.25371447 3.19172979 8.88676164 6.7541922 11.1875 13.2890625 C13.36747242 21.66603518 11.84193174 29.32637423 7.8828125 36.9609375 C4.27535271 41.73067917 -1.39126449 43.89887114 -7.1171875 44.9609375 C-13.81971761 45.41409598 -18.80310738 43.73108621 -24.203125 39.78125 C-29.27771874 34.95520779 -31.26018279 28.24257634 -31.4921875 21.3984375 C-31.42764969 13.79219521 -29.05581085 7.97689305 -23.7421875 2.5234375 C-15.65677883 -2.28930576 -8.70470965 -3.72083667 0 0 Z " fill="#FBFBFB" transform="translate(1370.1171875,1546.0390625)"/>
<path d="M0 0 C5.05366434 3.64333941 8.82161772 7.92712344 10.6875 13.9375 C11.51997003 23.59199006 11.3587493 32.19866432 5.4375 40.25 C1.21324567 44.37824855 -2.89985866 46.06285821 -8.75 46.375 C-14.79008594 46.14823909 -19.33016928 43.86625421 -23.625 39.6875 C-28.74613797 31.34194183 -29.25640143 23.63104953 -28.3125 13.9375 C-26.50960774 7.23522257 -22.31006238 3.34109763 -16.4609375 -0.17578125 C-11.32410725 -2.29589119 -5.17951325 -1.66135331 0 0 Z " fill="#FCFCFC" transform="translate(1646.3125,1545.0625)"/>
<path d="M0 0 C4.58860247 3.23287901 8.77721698 7.60098558 10.75 12.9375 C11.40677226 21.29641965 12.13170186 30.54337811 7.75 37.9375 C2.58302818 43.52134004 -1.39227264 45.9975304 -9 46.3125 C-14.54091004 46.24712053 -18.11689443 44.57310212 -22.25 40.9375 C-28.13274552 33.81628174 -29.05465909 25.87675959 -28.25 16.9375 C-27.01655054 10.77988905 -24.79327334 6.27426092 -20.25 1.9375 C-13.8026168 -1.85507835 -7.04868775 -2.30437869 0 0 Z " fill="#FCFCFC" transform="translate(1440.25,1381.0625)"/>
<path d="M0 0 C4.62463924 3.363374 8.9187253 7.50617591 10.75 13 C10.92560807 15.91048781 11.02718869 18.77549369 11.0625 21.6875 C11.09150391 22.46544922 11.12050781 23.24339844 11.15039062 24.04492188 C11.21950291 30.41920072 9.74488082 35.75718487 5.33740234 40.52954102 C0.272758 44.99820176 -4.27898721 46.49616426 -10.91015625 46.30859375 C-16.49136508 45.57250778 -20.69705769 43.13781107 -24.125 38.6875 C-28.7390848 31.33914273 -29.43453183 22.91340502 -27.75 14.50390625 C-25.87378863 8.18235317 -23.05542909 4.00387792 -17.625 0.125 C-11.74258763 -1.83580412 -5.92338442 -1.82257982 0 0 Z " fill="#FCFCFC" transform="translate(1635.25,1054)"/>
<path d="M0 0 C5.89070006 3.37971478 8.88841226 7.82286386 10.6875 14.375 C11.65495173 23.5403322 11.47846884 31.86121794 5.6875 39.375 C0.69811812 44.17505266 -4.30773506 45.7671888 -11.16015625 45.65234375 C-16.38551994 44.97902102 -20.69744603 42.3892097 -24.1875 38.5 C-29.40939338 30.82074503 -29.02460538 22.2808242 -28.3125 13.375 C-26.74698411 7.11293645 -22.59096955 2.91439142 -17.3125 -0.625 C-11.58405171 -2.53448276 -5.53687495 -2.53685715 0 0 Z " fill="#FCFCFC" transform="translate(1867.3125,1545.625)"/>
<path d="M0 0 C4.23833545 3.18819529 7.683733 6.73493199 9 12 C9 12.99 9 13.98 9 15 C6.60225255 15.13572155 4.21224755 15.23436868 1.8125 15.3125 C0.80219727 15.3753418 0.80219727 15.3753418 -0.22851562 15.43945312 C-4.23643205 15.53720718 -5.72354498 15.25042645 -8.73828125 12.51953125 C-9.48464844 11.68808594 -10.23101563 10.85664062 -11 10 C-13.80095443 9.09817755 -16.1515423 9.32234272 -19 10 C-22.24600077 11.57748508 -22.24600077 11.57748508 -24 15 C-24.84375132 20.40598192 -24.76742173 25.18609408 -22.625 30.25 C-18.61260077 32.92493282 -14.68556591 32.54756196 -10 32 C-8.515 31.505 -8.515 31.505 -7 31 C-6.34 29.68 -5.68 28.36 -5 27 C-0.38 27 4.24 27 9 27 C7.92355413 33.45867524 6.50601009 36.45522853 2 41 C-5.06774596 45.73444019 -12.61140525 46.96663277 -21 46 C-27.73158044 43.85244286 -33.3435522 40.1393735 -37 34 C-39.98522784 26.72222041 -40.30301919 18.07943407 -38.34765625 10.45703125 C-35.75089076 4.69510953 -31.37216499 0.43669409 -25.5703125 -2.03515625 C-16.26586793 -5.0753623 -8.76231715 -4.40045883 0 0 Z " fill="#C70405" transform="translate(2111,1578)"/>
<path d="M0 0 C3.17570214 2.38177661 5.30353443 4.54892357 7.5 7.875 C7.995 11.835 7.995 11.835 8.5 15.875 C-3.71 15.875 -15.92 15.875 -28.5 15.875 C-27.41785359 8.29997516 -26.41728815 5.23365851 -20.5625 0.5 C-14.38412647 -2.69617159 -6.4335247 -2.06791866 0 0 Z " fill="#FAFAFA" transform="translate(1814.5,1215.125)"/>
<path d="M0 0 C3.29494699 1.79595823 5.99274355 3.87093466 7.6328125 7.2421875 C8.1278125 11.6971875 8.1278125 11.6971875 8.6328125 16.2421875 C-3.2471875 16.2421875 -15.1271875 16.2421875 -27.3671875 16.2421875 C-26.23771996 7.20644716 -26.23771996 7.20644716 -23.5546875 4.3671875 C-23.05324219 3.81289062 -22.55179688 3.25859375 -22.03515625 2.6875 C-16.22725428 -2.34510826 -7.09567987 -2.27155428 0 0 Z " fill="#FBFBFB" transform="translate(1685.3671875,1214.7578125)"/>
<path d="M0 0 C3.62259904 1.8837515 5.68975631 4.06926894 7 8 C7.36928024 13.63152372 7.14319824 17.11058051 4 22 C-0.44776246 24.96517497 -4.78521883 24.76239491 -10 24 C-13.41311667 21.47429367 -14.66637768 20.00086696 -16 16 C-16.36928024 10.36847628 -16.14319824 6.88941949 -13 2 C-8.75417853 -0.83054764 -4.98515163 -0.77409187 0 0 Z " fill="#FDF6F6" transform="translate(2156,1587)"/>
<path d="M0 0 C6.93 0 13.86 0 21 0 C21 6.6 21 13.2 21 20 C14.07 20 7.14 20 0 20 C0 13.4 0 6.8 0 0 Z " fill="#CB0002" transform="translate(2045,1604)"/>
<path d="M0 0 C5.94 0 11.88 0 18 0 C19.32 3.63 20.64 7.26 22 11 C21.34 11 20.68 11 20 11 C18 8 18 8 17 3 C12.05 2.67 7.1 2.34 2 2 C2 17.18 2 32.36 2 48 C5.96 48 9.92 48 14 48 C14 39.42 14 30.84 14 22 C14.66 22.33 15.32 22.66 16 23 C15.67 31.58 15.34 40.16 15 49 C10.05 49 5.1 49 0 49 C0 32.83 0 16.66 0 0 Z " fill="#D05455" transform="translate(2183,1575)"/>
<path d="M0 0 C2.7708983 -0.02696009 5.5415345 -0.04681952 8.3125 -0.0625 C9.09818359 -0.07087891 9.88386719 -0.07925781 10.69335938 -0.08789062 C11.45068359 -0.09111328 12.20800781 -0.09433594 12.98828125 -0.09765625 C13.68477783 -0.10289307 14.38127441 -0.10812988 15.09887695 -0.11352539 C17 0 17 0 20 1 C22.02867802 1.13867637 24.06111346 1.22508662 26.09375 1.28125 C27.88619141 1.33732422 27.88619141 1.33732422 29.71484375 1.39453125 C30.96394531 1.42933594 32.21304688 1.46414063 33.5 1.5 C35.96886838 1.568792 38.43763109 1.64152244 40.90625 1.71875 C42.00259766 1.74904297 43.09894531 1.77933594 44.22851562 1.81054688 C47 2 47 2 50 3 C51.59166512 3.09274214 53.18688667 3.13068425 54.78125 3.1328125 C55.70550781 3.13410156 56.62976563 3.13539062 57.58203125 3.13671875 C59.02642578 3.13091797 59.02642578 3.13091797 60.5 3.125 C61.46292969 3.12886719 62.42585937 3.13273437 63.41796875 3.13671875 C64.80435547 3.13478516 64.80435547 3.13478516 66.21875 3.1328125 C67.06373047 3.13168457 67.90871094 3.13055664 68.77929688 3.12939453 C71.17443433 3.08658224 71.17443433 3.08658224 74 2 C76.51368055 1.9153183 78.99869374 1.88398115 81.51171875 1.90234375 C82.23994339 1.9037587 82.96816803 1.90517365 83.71846008 1.90663147 C86.04151539 1.91222341 88.36447388 1.92477438 90.6875 1.9375 C92.26367048 1.94251604 93.83984248 1.94707877 95.41601562 1.95117188 C99.27738098 1.9621902 103.13867408 1.97944926 107 2 C107 2.33 107 2.66 107 3 C71.3778833 5.87115024 35.43674427 6.39879086 0 1 C0 0.67 0 0.34 0 0 Z " fill="#B4191A" transform="translate(703,1717)"/>
<path d="M0 0 C5.61 0 11.22 0 17 0 C17 16.17 17 32.34 17 49 C12.38 49 7.76 49 3 49 C2.67 40.42 2.34 31.84 2 23 C2.66 23 3.32 23 4 23 C4 30.92 4 38.84 4 47 C6.475 46.505 6.475 46.505 9 46 C11.31 46.33 13.62 46.66 16 47 C16 32.15 16 17.3 16 2 C9.565 2.495 9.565 2.495 3 3 C2.67 3.66 2.34 4.32 2 5 C1.34 5 0.68 5 0 5 C-0.33 6.65 -0.66 8.3 -1 10 C-1.99 10 -2.98 10 -4 10 C-2.68 6.7 -1.36 3.4 0 0 Z " fill="#B72A29" transform="translate(2225,1575)"/>
<path d="M0 0 C0.33 0 0.66 0 1 0 C4.54590413 31.21596502 6.8917325 62.60404714 4 94 C3.67 94 3.34 94 3 94 C3 73.54 3 53.08 3 32 C2.34 32 1.68 32 1 32 C0.67 21.44 0.34 10.88 0 0 Z " fill="#B82A2A" transform="translate(1198,1222)"/>
<path d="M0 0 C0.33 0 0.66 0 1 0 C1.02887814 3.47914941 1.04675687 6.95826831 1.0625 10.4375 C1.07087891 11.43072266 1.07925781 12.42394531 1.08789062 13.44726562 C1.09111328 14.39150391 1.09433594 15.33574219 1.09765625 16.30859375 C1.10289307 17.18314209 1.10812988 18.05769043 1.11352539 18.95874023 C1 21 1 21 0 22 C-0.12375169 24.02414991 -0.17797311 26.05257737 -0.20532227 28.08032227 C-0.22526749 29.38159561 -0.24521271 30.68286896 -0.26576233 32.02357483 C-0.28274799 33.4545174 -0.29962675 34.88546125 -0.31640625 36.31640625 C-0.33696906 37.7722992 -0.35796534 39.22818609 -0.37937927 40.68406677 C-0.43466961 44.52272647 -0.48404802 48.36144065 -0.53222656 52.20019531 C-0.58239091 56.11463288 -0.63810336 60.02899096 -0.69335938 63.94335938 C-0.80102603 71.62883901 -0.90245193 79.31438457 -1 87 C-1.33 87 -1.66 87 -2 87 C-2.76082779 75.68224429 -3.23368428 64.40631987 -3.25 53.0625 C-3.25233643 52.30739136 -3.25467285 51.55228271 -3.25708008 50.77429199 C-3.27663731 33.74972236 -1.82683324 16.91440277 0 0 Z " fill="#B32021" transform="translate(330,1230)"/>
<path d="M0 0 C6.93 0 13.86 0 21 0 C21 6.6 21 13.2 21 20 C14.07 20 7.14 20 0 20 C0 13.4 0 6.8 0 0 Z M2 2 C2 7.28 2 12.56 2 18 C7.94 18 13.88 18 20 18 C20 12.72 20 7.44 20 2 C14.06 2 8.12 2 2 2 Z " fill="#BF3131" transform="translate(2045,1604)"/>
<path d="M0 0 C0.66 0 1.32 0 2 0 C3.38054944 3.25415224 4.4246532 6.49874765 5.3671875 9.90234375 C6.92406036 15.06308898 8.61752564 20.36465825 11.125 25.14453125 C12 27 12 27 12 30 C12.66 30.33 13.32 30.66 14 31 C15.3749149 33.90259811 16 35.76138705 16 39 C16.66 39.33 17.32 39.66 18 40 C18.70105843 41.65249487 19.35800351 43.32367583 20 45 C21.07950416 47.02256542 22.17217398 49.03515145 23.29296875 51.03515625 C24.15854591 53.44059995 23.69749358 54.59397571 23 57 C17.06504585 45.04326362 11.42209461 33.01217277 6.4375 20.625 C5.81222412 19.08598022 5.81222412 19.08598022 5.17431641 17.51586914 C2.87946005 11.71786177 1.17320545 6.12603493 0 0 Z " fill="#B21212" transform="translate(351,1425)"/>
<path d="M0 0 C1.1021976 3.33791894 0.87799871 5.54825921 0.06640625 8.9453125 C-0.28309082 10.41955688 -0.28309082 10.41955688 -0.63964844 11.92358398 C-0.90293945 12.98005127 -1.16623047 14.03651855 -1.4375 15.125 C-1.7046582 16.21562744 -1.97181641 17.30625488 -2.24707031 18.42993164 C-4.35326667 26.83494903 -6.72501757 35.14933656 -9.25 43.4375 C-9.59087646 44.56236816 -9.93175293 45.68723633 -10.28295898 46.84619141 C-10.60723877 47.88565918 -10.93151855 48.92512695 -11.265625 49.99609375 C-11.55211914 50.91575928 -11.83861328 51.8354248 -12.13378906 52.78295898 C-13 55 -13 55 -15 57 C-15.2004302 53.22523115 -14.67847729 50.74262321 -13.125 47.3125 C-11.3397791 43.0968731 -10.28539505 39.13436338 -9.58984375 34.6171875 C-8.94359795 31.74973926 -7.89374977 29.13113992 -6.83569336 26.39501953 C-5.13905115 21.53260057 -4.02381106 16.50077058 -2.8125 11.5 C-2.53986328 10.39140625 -2.26722656 9.2828125 -1.98632812 8.140625 C-1.31989149 5.42811099 -0.65789979 2.71459479 0 0 Z " fill="#B0191B" transform="translate(1192,1373)"/>
<path d="M0 0 C4.62 0 9.24 0 14 0 C13.06815886 5.59104685 12.29145646 7.67996339 9 12 C8.67 12 8.34 12 8 12 C8 10.35 8 8.7 8 7 C8.99 7 9.98 7 11 7 C11.33 5.35 11.66 3.7 12 2 C5.53253875 2.2933089 1.44936725 3.51240496 -4 7 C-6.75078884 7.91692961 -8.35948913 8.10886083 -11.1875 8.0625 C-13.0746875 8.0315625 -13.0746875 8.0315625 -15 8 C-15 7.34 -15 6.68 -15 6 C-14.31292969 5.93941406 -13.62585937 5.87882812 -12.91796875 5.81640625 C-12.01691406 5.73261719 -11.11585938 5.64882812 -10.1875 5.5625 C-8.84751953 5.44068359 -8.84751953 5.44068359 -7.48046875 5.31640625 C-4.87256441 5.06510233 -4.87256441 5.06510233 -2 4 C-1.34 2.68 -0.68 1.36 0 0 Z " fill="#B52829" transform="translate(2106,1605)"/>
<path d="M0 0 C1.65689966 0.00503518 3.31380083 0.00959445 4.97070312 0.01367188 C8.95967416 0.02449438 12.94856935 0.04164243 16.9375 0.0625 C16.9375 0.3925 16.9375 0.7225 16.9375 1.0625 C6.3775 1.0625 -4.1825 1.0625 -15.0625 1.0625 C-15.0625 1.7225 -15.0625 2.3825 -15.0625 3.0625 C-22.9825 3.0625 -30.9025 3.0625 -39.0625 3.0625 C-35.49102818 0.68151879 -32.71044303 0.619576 -28.56640625 0.44140625 C-27.44426476 0.38479576 -27.44426476 0.38479576 -26.29945374 0.32704163 C-17.53517643 -0.07371964 -8.77109646 -0.04730519 0 0 Z " fill="#C53A3B" transform="translate(767.0625,845.9375)"/>
<path d="M0 0 C0.33 1.32 0.66 2.64 1 4 C-0.22976563 5.08667969 -0.22976563 5.08667969 -1.484375 6.1953125 C-2.57322915 7.17152657 -3.66175332 8.14810879 -4.75 9.125 C-5.28882813 9.599375 -5.82765625 10.07375 -6.3828125 10.5625 C-9.89860096 13.73528471 -12.49928103 16.93351556 -15 21 C-17.40436026 24.60654039 -18.94679607 24.85452932 -23 26 C-19.02988869 20.22235834 -14.48783264 15.37029483 -9.48046875 10.4765625 C-6.13627484 7.13763504 -3.0457265 3.61049697 0 0 Z " fill="#B0181B" transform="translate(458,971)"/>
<path d="M0 0 C0.99 0.33 1.98 0.66 3 1 C2.67 9.58 2.34 18.16 2 27 C-1.96 27 -5.92 27 -10 27 C-10 26.67 -10 26.34 -10 26 C-6.7 25.67 -3.4 25.34 0 25 C0 16.75 0 8.5 0 0 Z " fill="#B90808" transform="translate(2195,1596)"/>
<path d="M0 0 C2.72147846 3.62863794 3.83774002 5.91540375 5.1875 10.125 C5.53167969 11.17945313 5.87585937 12.23390625 6.23046875 13.3203125 C7 16 7 16 7 18 C6.34 18 5.68 18 5 18 C4.01 15.03 3.02 12.06 2 9 C1.67 13.95 1.34 18.9 1 24 C0.67 24 0.34 24 0 24 C0 16.08 0 8.16 0 0 Z M-14 24 C-9.38 24 -4.76 24 0 24 C0 24.33 0 24.66 0 25 C-4.62 25 -9.24 25 -14 25 C-14 24.67 -14 24.34 -14 24 Z " fill="#FDE3E3" transform="translate(2198,1600)"/>
<path d="M0 0 C0.7528125 -0.01417969 1.505625 -0.02835938 2.28125 -0.04296875 C4.74864173 0.21332722 6.36356256 0.95904847 8.5 2.1875 C8.5 2.8475 8.5 3.5075 8.5 4.1875 C9.49 4.5175 10.48 4.8475 11.5 5.1875 C11.5 6.5075 11.5 7.8275 11.5 9.1875 C12.16 9.1875 12.82 9.1875 13.5 9.1875 C13.5 11.8275 13.5 14.4675 13.5 17.1875 C12.84 17.5175 12.18 17.8475 11.5 18.1875 C11.41363281 17.43984375 11.32726563 16.6921875 11.23828125 15.921875 C10.40090002 9.81451037 10.40090002 9.81451037 7.5 4.5 C2.32182822 2.23454985 -3.17279696 2.41176565 -8.5 4.1875 C-8.5 3.1975 -8.5 2.2075 -8.5 1.1875 C-5.61288129 0.36729582 -2.99986689 0.02568379 0 0 Z " fill="#B2161A" transform="translate(2151.5,1584.8125)"/>
<path d="M0 0 C0.66 0.33 1.32 0.66 2 1 C-0.50632911 4.88481013 -0.50632911 4.88481013 -2.875 5.4375 C-5.28209573 5.88418787 -5.28209573 5.88418787 -7.375 8.375 C-10.10799701 11.10799701 -12.54478137 12.34750413 -16 14 C-17.01801357 14.98165594 -18.0246803 15.97591432 -19 17 C-19.66 17 -20.32 17 -21 17 C-21.66 18.32 -22.32 19.64 -23 21 C-23.99 20.34 -24.98 19.68 -26 19 C-8.85106383 6.04255319 -8.85106383 6.04255319 0 0 Z " fill="#B71314" transform="translate(518,922)"/>
<path d="M0 0 C0.66 0 1.32 0 2 0 C1.71253906 1.27746094 1.42507813 2.55492187 1.12890625 3.87109375 C0.00690583 8.92355553 -1.04154109 13.98876122 -2.0625 19.0625 C-2.23587891 19.90876953 -2.40925781 20.75503906 -2.58789062 21.62695312 C-3.61690799 26.74049921 -4.41868362 31.81609616 -5 37 C-5.33 37 -5.66 37 -6 37 C-6.02685095 34.52076199 -6.04676547 32.0418116 -6.0625 29.5625 C-6.07506836 28.50192383 -6.07506836 28.50192383 -6.08789062 27.41992188 C-6.09653588 25.61306441 -6.05220011 23.80612397 -6 22 C-5.67 21.67 -5.34 21.34 -5 21 C-4.76807135 19.48530552 -4.58784762 17.96245438 -4.4375 16.4375 C-4.35371094 15.61121094 -4.26992188 14.78492188 -4.18359375 13.93359375 C-4.12300781 13.29550781 -4.06242188 12.65742187 -4 12 C-3.34 12 -2.68 12 -2 12 C-2 9.36 -2 6.72 -2 4 C-1.34 4 -0.68 4 0 4 C0 2.68 0 1.36 0 0 Z " fill="#B31414" transform="translate(917,997)"/>
<path d="M0 0 C4.68803656 0.73048301 8.90885555 2.36636885 13.3125 4.0625 C14.42334961 4.48499023 14.42334961 4.48499023 15.55664062 4.91601562 C17.37242655 5.60718575 19.18639899 6.30311689 21 7 C21 7.66 21 8.32 21 9 C21.63808594 9.10957031 22.27617188 9.21914062 22.93359375 9.33203125 C23.75988281 9.49058594 24.58617187 9.64914062 25.4375 9.8125 C26.26121094 9.96332031 27.08492187 10.11414062 27.93359375 10.26953125 C28.61550781 10.51058594 29.29742188 10.75164062 30 11 C30.33 11.99 30.66 12.98 31 14 C23.87303484 11.78157548 17.20419332 8.95177996 10.4375 5.8125 C9.42880859 5.34908203 8.42011719 4.88566406 7.38085938 4.40820312 C4.9186275 3.27627662 2.45843306 2.1401475 0 1 C0 0.67 0 0.34 0 0 Z " fill="#B61B1C" transform="translate(575,1678)"/>
<path d="M0 0 C1.27450447 0.59638333 2.54446877 1.20247416 3.8125 1.8125 C4.52019531 2.14894531 5.22789062 2.48539063 5.95703125 2.83203125 C8.01129035 4.00645471 9.41616278 5.25628016 11 7 C9.71086513 7.67154933 8.41859796 8.33708859 7.125 9 C6.40570312 9.37125 5.68640625 9.7425 4.9453125 10.125 C3 11 3 11 1 11 C0.16785795 7.25536075 0 3.83871745 0 0 Z " fill="#BB1114" transform="translate(987,907)"/>
<path d="M0 0 C-0.33 0.66 -0.66 1.32 -1 2 C-11.37704119 4.45392164 -22.38737542 4.54276674 -33 5 C-33 4.67 -33 4.34 -33 4 C-29.00170835 3.32281186 -25.00113468 2.66016492 -21 2 C-19.87464844 1.80921875 -18.74929688 1.6184375 -17.58984375 1.421875 C-11.642717 0.44807647 -6.02622377 -0.2363225 0 0 Z " fill="#B92B2D" transform="translate(718,849)"/>
<path d="M0 0 C1.23863592 4.15035469 0.67924369 7.79036627 0 12 C-0.144375 12.928125 -0.28875 13.85625 -0.4375 14.8125 C-1 17 -1 17 -3 20 C-3.66 20 -4.32 20 -5 20 C-5 21.65 -5 23.3 -5 25 C-5.66 24.67 -6.32 24.34 -7 24 C-5.08927776 15.83600499 -2.76477561 7.9153982 0 0 Z " fill="#B81616" transform="translate(350,1143)"/>
<path d="M0 0 C0.33 0 0.66 0 1 0 C1.125 6.75 1.125 6.75 0 9 C-0.66 9 -1.32 9 -2 9 C-2.103125 9.721875 -2.20625 10.44375 -2.3125 11.1875 C-3.06793947 14.27793421 -4.15531315 16.41743841 -6 19 C-6.66 19 -7.32 19 -8 19 C-6.00386732 12.2813095 -3.2708579 6.19265192 0 0 Z " fill="#B90E11" transform="translate(374,1086)"/>
<path d="M0 0 C2.31 0 4.62 0 7 0 C2.54197696 2.97201536 -2.39462418 4.37927051 -7.4375 6.125 C-8.48744141 6.49753906 -9.53738281 6.87007812 -10.61914062 7.25390625 C-11.63041016 7.60582031 -12.64167969 7.95773437 -13.68359375 8.3203125 C-14.60712646 8.64273926 -15.53065918 8.96516602 -16.48217773 9.29736328 C-19 10 -19 10 -23 10 C-23 9.34 -23 8.68 -23 8 C-22.23816406 7.81824219 -21.47632813 7.63648438 -20.69140625 7.44921875 C-14.94196541 6.04954214 -9.31644873 4.54158883 -3.7421875 2.55078125 C-2 2 -2 2 0 2 C0 1.34 0 0.68 0 0 Z " fill="#B01617" transform="translate(913,1693)"/>
<path d="M0 0 C0 3 0 3 -2.16015625 5.33984375 C-12.38474316 14.49105546 -12.38474316 14.49105546 -18 17 C-18.66 16.67 -19.32 16.34 -20 16 C-17.41768612 13.89457973 -14.83396996 11.79088731 -12.25 9.6875 C-11.15558594 8.79514648 -11.15558594 8.79514648 -10.0390625 7.88476562 C-8.97558594 7.01948242 -8.97558594 7.01948242 -7.890625 6.13671875 C-7.24125977 5.60780029 -6.59189453 5.07888184 -5.92285156 4.53393555 C-3.97720537 2.98181581 -1.9984569 1.48329048 0 0 Z " fill="#FDE6E5" transform="translate(1050,1616)"/>
<path d="M0 0 C0.33 0 0.66 0 1 0 C1 2.31 1 4.62 1 7 C0.67 7 0.34 7 0 7 C-0.28875 8.03125 -0.5775 9.0625 -0.875 10.125 C-1.82230897 13.45065916 -2.90649244 16.71947733 -4 20 C-4.34976758 21.32911682 -4.69096017 22.66082739 -5 24 C-5.99 24 -6.98 24 -8 24 C-5.69356492 15.86184696 -2.89571216 7.94317882 0 0 Z " fill="#FDE1DE" transform="translate(2227,1599)"/>
<path d="M0 0 C4.07229836 3.41547604 4.03526416 4.21158499 5 10 C0.05 10 -4.9 10 -10 10 C-10.33 9.01 -10.66 8.02 -11 7 C-6.71 7.33 -2.42 7.66 2 8 C1.34 5.36 0.68 2.72 0 0 Z " fill="#AA1619" transform="translate(2115,1583)"/>
<path d="M0 0 C0.66 0 1.32 0 2 0 C3.38152634 3.25645495 4.43072666 6.50073665 5.36328125 9.91015625 C6.15398531 12.5054119 7.10805809 15.02306431 8.0625 17.5625 C9.47399029 21.37194964 10.56076457 24.93707225 11 29 C8.64946704 26.64946704 8.00261624 24.76608582 6.8359375 21.66015625 C6.43632812 20.59732422 6.03671875 19.53449219 5.625 18.43945312 C5.00625 16.76786133 5.00625 16.76786133 4.375 15.0625 C3.95476562 13.95197266 3.53453125 12.84144531 3.1015625 11.69726562 C0 3.38447392 0 3.38447392 0 0 Z " fill="#B2201E" transform="translate(351,1425)"/>
<path d="M0 0 C0.33 0.99 0.66 1.98 1 3 C-2.75882086 6.95380292 -6.19513817 10.33063232 -11 13 C-12.75149165 14.58245275 -12.75149165 14.58245275 -14 16 C-14.66 15.67 -15.32 15.34 -16 15 C-13.89888324 12.87190742 -11.79429065 10.74746285 -9.6875 8.625 C-9.09259766 8.02171875 -8.49769531 7.4184375 -7.88476562 6.796875 C-7.30791016 6.21679688 -6.73105469 5.63671875 -6.13671875 5.0390625 C-5.60780029 4.50490723 -5.07888184 3.97075195 -4.53393555 3.42041016 C-3 2 -3 2 0 0 Z " fill="#B71215" transform="translate(476,955)"/>
<path d="M0 0 C-7.32807534 3.03979421 -15.14625912 4.74976018 -22.828125 1.98046875 C-23.54484375 1.65691406 -24.2615625 1.33335938 -25 1 C-25 0.67 -25 0.34 -25 0 C-23.12054687 0.01740234 -23.12054687 0.01740234 -21.203125 0.03515625 C-19.55208483 0.04453716 -17.90104304 0.05363704 -16.25 0.0625 C-15.425 0.07087891 -14.6 0.07925781 -13.75 0.08789062 C-12.55117187 0.09272461 -12.55117187 0.09272461 -11.328125 0.09765625 C-10.22839355 0.10551147 -10.22839355 0.10551147 -9.10644531 0.11352539 C-6.97982562 0.07321832 -6.97982562 0.07321832 -4.91699219 -0.56860352 C-3 -1 -3 -1 0 0 Z " fill="#BB2428" transform="translate(2110,1621)"/>
<path d="M0 0 C1.32 0.99 2.64 1.98 4 3 C3.01 3.33 2.02 3.66 1 4 C0.67 4.66 0.34 5.32 0 6 C-0.99 6.495 -0.99 6.495 -2 7 C-2 8.32 -2 9.64 -2 11 C-4.5 13.25 -4.5 13.25 -7 15 C-7.66 14.67 -8.32 14.34 -9 14 C-6.03 9.38 -3.06 4.76 0 0 Z " fill="#FBDEDD" transform="translate(938,961)"/>
<path d="M0 0 C18.34042553 -0.38297872 18.34042553 -0.38297872 27 2 C27 2.33 27 2.66 27 3 C17.84435229 3.34915606 9.04039783 2.27041977 0 1 C0 0.67 0 0.34 0 0 Z " fill="#B11B1A" transform="translate(703,1717)"/>
<path d="M0 0 C5.61 0 11.22 0 17 0 C18.32 3.63 19.64 7.26 21 11 C20.34 11 19.68 11 19 11 C17 8 17 8 16 3 C10.72 2.34 5.44 1.68 0 1 C0 0.67 0 0.34 0 0 Z " fill="#B02A2D" transform="translate(2184,1575)"/>
<path d="M0 0 C0.33 0 0.66 0 1 0 C0.50610812 8.78607656 -0.36822681 17.35001785 -2 26 C-2.33 26 -2.66 26 -3 26 C-3.40411834 16.85495156 -2.42614476 8.82365744 0 0 Z " fill="#B62122" transform="translate(1198,1338)"/>
<path d="M0 0 C4.54075781 4.14010271 7.71842138 8.82390176 11 14 C10.01 14.495 10.01 14.495 9 15 C6 11.25 6 11.25 6 9 C5.34 9 4.68 9 4 9 C4 8.34 4 7.68 4 7 C3.34 7 2.68 7 2 7 C1.34 6.34 0.68 5.68 0 5 C-0.99 5 -1.98 5 -3 5 C-2.01 3.35 -1.02 1.7 0 0 Z " fill="#BB1313" transform="translate(933,1121)"/>
<path d="M0 0 C4.29 0 8.58 0 13 0 C13 0.33 13 0.66 13 1 C12.28972656 1.04898437 11.57945312 1.09796875 10.84765625 1.1484375 C9.46900391 1.26058594 9.46900391 1.26058594 8.0625 1.375 C7.14597656 1.44460938 6.22945312 1.51421875 5.28515625 1.5859375 C4.15400391 1.79089844 4.15400391 1.79089844 3 2 C2.67 2.66 2.34 3.32 2 4 C1.34 4 0.68 4 0 4 C-0.33 5.65 -0.66 7.3 -1 9 C-1.99 9 -2.98 9 -4 9 C-2.68 6.03 -1.36 3.06 0 0 Z " fill="#B70C0B" transform="translate(2225,1576)"/>
<path d="M0 0 C2 1 2 1 3.0546875 3.62109375 C4.02964779 7.10597249 4.63360639 10.4784466 5.125 14.0625 C5.29257812 15.24972656 5.46015625 16.43695312 5.6328125 17.66015625 C5.94307401 20.48221571 6.0749928 23.16634349 6 26 C4.48627838 23.20583307 3.57552376 20.66622535 2.9296875 17.55859375 C2.66865234 16.31239258 2.66865234 16.31239258 2.40234375 15.04101562 C2.14130859 13.75227539 2.14130859 13.75227539 1.875 12.4375 C1.69324219 11.57447266 1.51148438 10.71144531 1.32421875 9.82226562 C0 3.41523731 0 3.41523731 0 0 Z " fill="#B42223" transform="translate(335,1366)"/>
<path d="M0 0 C0.33 0.99 0.66 1.98 1 3 C-0.77554521 6.48986471 -2.24152313 9.24152313 -5 12 C-5 12.66 -5 13.32 -5 14 C-5.66 14 -6.32 14 -7 14 C-7 14.66 -7 15.32 -7 16 C-7.99 16 -8.98 16 -10 16 C-8.31029911 12.33601701 -6.12699789 9.09167428 -3.875 5.75 C-3.15054687 4.67234375 -2.42609375 3.5946875 -1.6796875 2.484375 C-0.84824219 1.25460937 -0.84824219 1.25460937 0 0 Z " fill="#FDE1DE" transform="translate(1130,1525)"/>
<path d="M0 0 C-10.25 5.125 -10.25 5.125 -14.625 5.0625 C-15.85089844 5.04896484 -15.85089844 5.04896484 -17.1015625 5.03515625 C-18.04128906 5.01775391 -18.04128906 5.01775391 -19 5 C-16.01243632 3.00829088 -13.44575614 1.97092021 -10.0625 0.8125 C-9.02222656 0.44769531 -7.98195313 0.08289063 -6.91015625 -0.29296875 C-4.04543948 -0.98896034 -2.71018643 -1.02529944 0 0 Z " fill="#B91A19" transform="translate(637,867)"/>
<path d="M0 0 C3.3 0.66 6.6 1.32 10 2 C6.28633571 3.85683215 3.7841109 4.51111356 -0.25 5.125 C-1.32765625 5.29257813 -2.4053125 5.46015625 -3.515625 5.6328125 C-4.33546875 5.75398438 -5.1553125 5.87515625 -6 6 C-5.34 5.34 -4.68 4.68 -4 4 C-3.01 4 -2.02 4 -1 4 C-0.67 2.68 -0.34 1.36 0 0 Z " fill="#BB1316" transform="translate(858,1707)"/>
<path d="M0 0 C2.475 0.99 2.475 0.99 5 2 C2.61664713 4.67438936 0.12963852 6.15158012 -3.0625 7.75 C-3.94035156 8.19859375 -4.81820312 8.6471875 -5.72265625 9.109375 C-6.47417969 9.40328125 -7.22570312 9.6971875 -8 10 C-8.66 9.67 -9.32 9.34 -10 9 C-6.375 6 -6.375 6 -3 6 C-3 5.34 -3 4.68 -3 4 C-2.34 3.34 -1.68 2.68 -1 2 C-0.67 1.34 -0.34 0.68 0 0 Z " fill="#B81616" transform="translate(971,1665)"/>
<path d="M0 0 C2.05078125 0.03255208 4.1015625 0.06510417 6.15234375 0.09765625 C2.66875544 3.58124456 -1.14677376 3.25564335 -5.91015625 3.28515625 C-7.47443359 3.30642578 -7.47443359 3.30642578 -9.0703125 3.328125 C-11.84765625 3.09765625 -11.84765625 3.09765625 -14.84765625 1.09765625 C-13.56568359 1.11505859 -13.56568359 1.11505859 -12.2578125 1.1328125 C-10.60072266 1.14634766 -10.60072266 1.14634766 -8.91015625 1.16015625 C-7.25693359 1.17755859 -7.25693359 1.17755859 -5.5703125 1.1953125 C-2.6581884 1.09086042 -2.60383694 0.13762352 0 0 Z " fill="#BB2827" transform="translate(2156.84765625,1620.90234375)"/>
<path d="M0 0 C1.76141726 2.64212589 3.23818698 5.2427764 4.6875 8.0625 C5.14511719 8.94035156 5.60273437 9.81820313 6.07421875 10.72265625 C6.37972656 11.47417969 6.68523438 12.22570313 7 13 C6.67 13.66 6.34 14.32 6 15 C4.68 14.01 3.36 13.02 2 12 C2.33 11.01 2.66 10.02 3 9 C1.68 8.67 0.36 8.34 -1 8 C-0.67 5.36 -0.34 2.72 0 0 Z " fill="#B91618" transform="translate(922,1099)"/>
<path d="M0 0 C0 0.66 0 1.32 0 2 C-0.928125 2.4021875 -0.928125 2.4021875 -1.875 2.8125 C-4.2995233 3.95556848 -4.2995233 3.95556848 -6 7 C-6.99 7.33 -7.98 7.66 -9 8 C-10.20882096 10.00016466 -10.20882096 10.00016466 -11 12 C-11 11.01 -11 10.02 -11 9 C-11.99 8.67 -12.98 8.34 -14 8 C-12.04532248 6.66101601 -10.0866421 5.32870953 -8.125 4 C-7.03445313 3.2575 -5.94390625 2.515 -4.8203125 1.75 C-2 0 -2 0 0 0 Z " fill="#BA1318" transform="translate(537,911)"/>
<path d="M0 0 C0.99 0.33 1.98 0.66 3 1 C-5.80606996 6.15072016 -5.80606996 6.15072016 -11.1875 6.0625 C-13.0746875 6.0315625 -13.0746875 6.0315625 -15 6 C-15 5.34 -15 4.68 -15 4 C-14.33613281 3.96261719 -13.67226562 3.92523437 -12.98828125 3.88671875 C-7.78216093 3.49910979 -4.41829165 2.94552777 0 0 Z " fill="#B7191C" transform="translate(2106,1607)"/>
<path d="M0 0 C6.27 0.66 12.54 1.32 19 2 C19.33 2.99 19.66 3.98 20 5 C13.13963599 4.34034961 6.65556077 2.7637236 0 1 C0 0.67 0 0.34 0 0 Z " fill="#BD2C2C" transform="translate(653,1707)"/>
<path d="M0 0 C0.66 0 1.32 0 2 0 C2 5.28 2 10.56 2 16 C1.34 16 0.68 16 0 16 C0 14.35 0 12.7 0 11 C-0.99 10.67 -1.98 10.34 -3 10 C-2.01 6.7 -1.02 3.4 0 0 Z " fill="#BB181A" transform="translate(2085,1591)"/>
<path d="M0 0 C2.34914492 2.34914492 2.73140357 3.95679446 3.625 7.125 C3.88539063 8.03507812 4.14578125 8.94515625 4.4140625 9.8828125 C4.70410156 10.93082031 4.70410156 10.93082031 5 12 C5.66 12 6.32 12 7 12 C7.33 11.34 7.66 10.68 8 10 C8 11.32 8 12.64 8 14 C6.68 14 5.36 14 4 14 C3.32471777 12.42032193 2.66010306 10.83608097 2 9.25 C1.62875 8.36828125 1.2575 7.4865625 0.875 6.578125 C0 4 0 4 0 0 Z " fill="#BA181B" transform="translate(2207,1593)"/>
<path d="M0 0 C-1.36125 0.99 -1.36125 0.99 -2.75 2 C-6.44506865 5.03836213 -8.16700722 8.65472888 -10 13 C-10.93423645 9.98968256 -11.04449911 9.13349732 -10 6 C-9.34 6 -8.68 6 -8 6 C-7.9175 5.21625 -7.835 4.4325 -7.75 3.625 C-7 1 -7 1 -5.125 -0.375 C-3 -1 -3 -1 0 0 Z " fill="#FCE2DD" transform="translate(2083,1578)"/>
<path d="M0 0 C0.33 0 0.66 0 1 0 C0.98839844 0.61488281 0.97679687 1.22976563 0.96484375 1.86328125 C0.95582031 2.67152344 0.94679688 3.47976563 0.9375 4.3125 C0.92589844 5.11300781 0.91429687 5.91351562 0.90234375 6.73828125 C0.90342145 9.16861334 0.90342145 9.16861334 2 12 C1.01 12.495 1.01 12.495 0 13 C-1.13350534 15.01669827 -1.13350534 15.01669827 -2 17 C-3.44715727 13.12813552 -2.5441918 10.1767672 -1.5625 6.25 C-1.27503906 5.07953125 -0.98757813 3.9090625 -0.69140625 2.703125 C-0.46324219 1.81109375 -0.23507812 0.9190625 0 0 Z " fill="#BC2123" transform="translate(340,1176)"/>
<path d="M0 0 C0.99 0 1.98 0 3 0 C-0.23986486 6.71114865 -0.23986486 6.71114865 -4.125 8.1875 C-5.548125 8.5896875 -5.548125 8.5896875 -7 9 C-6.02180976 7.68677212 -5.0424189 6.37443848 -4.0625 5.0625 C-3.51722656 4.33160156 -2.97195313 3.60070312 -2.41015625 2.84765625 C-1 1 -1 1 0 0 Z " fill="#BC1011" transform="translate(442,988)"/>
<path d="M0 0 C-2.77280706 3.08089673 -5.06326356 4.68775452 -9 6 C-9.33 4.68 -9.66 3.36 -10 2 C-6.3558226 -0.4294516 -4.28758728 -0.16179575 0 0 Z " fill="#BF1115" transform="translate(979,923)"/>
<path d="M0 0 C0.66 0 1.32 0 2 0 C2 0.66 2 1.32 2 2 C2.66 2.33 3.32 2.66 4 3 C2.35 4.98 0.7 6.96 -1 9 C-2.1875 7.3125 -2.1875 7.3125 -3 5 C-1.75 2.25 -1.75 2.25 0 0 Z " fill="#C31112" transform="translate(1077,1584)"/>
<path d="M0 0 C0 0.33 0 0.66 0 1 C-1.7015625 1.2165625 -1.7015625 1.2165625 -3.4375 1.4375 C-6.80777201 1.61171478 -6.80777201 1.61171478 -8 3 C-9.67884238 3.3931648 -11.36850045 3.74085452 -13.0625 4.0625 C-13.98160156 4.23910156 -14.90070312 4.41570312 -15.84765625 4.59765625 C-16.55792969 4.73042969 -17.26820313 4.86320312 -18 5 C-18 4.34 -18 3.68 -18 3 C-11.75690073 0.22528921 -6.80203375 -0.37634203 0 0 Z " fill="#BB2D2C" transform="translate(2156,1574)"/>
<path d="M0 0 C7.92 3.96 7.92 3.96 16 8 C13 9 13 9 10.1171875 7.890625 C9.04726563 7.34921875 7.97734375 6.8078125 6.875 6.25 C5.79992187 5.71890625 4.72484375 5.1878125 3.6171875 4.640625 C1 3 1 3 0 0 Z " fill="#B41E22" transform="translate(980,1166)"/>
<path d="M0 0 C0.33 0.66 0.66 1.32 1 2 C0.01 3.485 0.01 3.485 -1 5 C-0.67 5.99 -0.34 6.98 0 8 C-0.99 8 -1.98 8 -3 8 C-3 8.66 -3 9.32 -3 10 C-4.32 9.67 -5.64 9.34 -7 9 C-4.69 6.03 -2.38 3.06 0 0 Z " fill="#BD1A1B" transform="translate(427,1005)"/>
<path d="M0 0 C0.66 0 1.32 0 2 0 C0.68938409 4.23429756 -0.94356259 8.07407404 -3 12 C-3.33 12 -3.66 12 -4 12 C-4 9.69 -4 7.38 -4 5 C-3.01 4.67 -2.02 4.34 -1 4 C-0.26676204 1.98491642 -0.26676204 1.98491642 0 0 Z " fill="#B51615" transform="translate(927,975)"/>
<path d="M0 0 C0 0.99 0 1.98 0 3 C-5.34883721 8 -5.34883721 8 -8 8 C-8.66 9.32 -9.32 10.64 -10 12 C-10.99 11.34 -11.98 10.68 -13 10 C-8.71 6.7 -4.42 3.4 0 0 Z " fill="#B61E1E" transform="translate(505,931)"/>
<path d="M0 0 C0 0.66 0 1.32 0 2 C-0.67546875 2.19335938 -1.3509375 2.38671875 -2.046875 2.5859375 C-3.38492188 2.97652344 -3.38492188 2.97652344 -4.75 3.375 C-5.63171875 3.63023438 -6.5134375 3.88546875 -7.421875 4.1484375 C-9.76080572 4.9209934 -11.83442562 5.83625676 -14 7 C-14.99 6.34 -15.98 5.68 -17 5 C-14.54285453 4.16301614 -12.08441143 3.33027576 -9.625 2.5 C-8.92632813 2.26152344 -8.22765625 2.02304688 -7.5078125 1.77734375 C-2.2265625 0 -2.2265625 0 0 0 Z " fill="#FDD9D7" transform="translate(911,1697)"/>
<path d="M0 0 C-1.36370299 2.99220268 -2.94908083 5.29026529 -5.125 7.75 C-5.93324219 8.67039062 -5.93324219 8.67039062 -6.7578125 9.609375 C-7.16773438 10.06828125 -7.57765625 10.5271875 -8 11 C-8.33 10.01 -8.66 9.02 -9 8 C-7.03935876 4.80105903 -3.97866476 0 0 0 Z " fill="#FDE8E1" transform="translate(1170,1128)"/>
<path d="M0 0 C-1.59766103 0.86627399 -3.20339944 1.71766465 -4.8125 2.5625 C-5.70582031 3.03816406 -6.59914063 3.51382812 -7.51953125 4.00390625 C-10 5 -10 5 -13 4 C-8.96743441 -0.62998272 -5.85522136 -1.62507203 0 0 Z " fill="#B61316" transform="translate(961,1676)"/>
<path d="M0 0 C2.31 0.33 4.62 0.66 7 1 C7 1.99 7 2.98 7 4 C8.65 4.33 10.3 4.66 12 5 C12 5.66 12 6.32 12 7 C7.39104317 5.68315519 3.85859765 3.84801255 0 1 C0 0.67 0 0.34 0 0 Z " fill="#B61C1C" transform="translate(540,1659)"/>
<path d="M0 0 C0.66 1.32 1.32 2.64 2 4 C1.01 4 0.02 4 -1 4 C-1.28875 4.78375 -1.5775 5.5675 -1.875 6.375 C-3 9 -3 9 -5 11 C-5.99 10.34 -6.98 9.68 -8 9 C-6.8553125 8.1646875 -6.8553125 8.1646875 -5.6875 7.3125 C-3.03859112 5.03320631 -1.61711178 3.06400128 0 0 Z " fill="#FBE1DC" transform="translate(2118,1611)"/>
<path d="M0 0 C0.66 0.33 1.32 0.66 2 1 C1.731875 1.495 1.46375 1.99 1.1875 2.5 C-0.43875493 5.9236946 -1.69515171 9.44132285 -3 13 C-3.66 13 -4.32 13 -5 13 C-4.54554036 11.58208592 -4.08625056 10.16571954 -3.625 8.75 C-3.24214844 7.56664062 -3.24214844 7.56664062 -2.8515625 6.359375 C-2.04826333 4.13372042 -1.10288338 2.09068328 0 0 Z " fill="#BA1F21" transform="translate(365,1105)"/>
<path d="M0 0 C4.15414253 1.22736029 6.43688534 2.327664 10 5 C6.7 5 3.4 5 0 5 C0 3.35 0 1.7 0 0 Z " fill="#BE1B1B" transform="translate(955,890)"/>
<path d="M0 0 C4.83256305 0.41421969 6.82679218 2.46413986 10 6 C8.02 6.33 6.04 6.66 4 7 C4 6.01 4 5.02 4 4 C3.34 4 2.68 4 2 4 C2 3.01 2 2.02 2 1 C1.34 0.67 0.68 0.34 0 0 Z " fill="#B61618" transform="translate(2160,1576)"/>
<path d="M0 0 C1.65 0.33 3.3 0.66 5 1 C3.35 3.64 1.7 6.28 0 9 C-1.53445094 5.93109813 -0.54984289 3.29905734 0 0 Z " fill="#BD1216" transform="translate(1132,1514)"/>
<path d="M0 0 C0 0.66 0 1.32 0 2 C-3 4 -3 4 -6 4 C-6 4.66 -6 5.32 -6 6 C-7.98 6.33 -9.96 6.66 -12 7 C-9.20232475 3.70861735 -4.40323273 0 0 0 Z " fill="#B31819" transform="translate(554,901)"/>
<path d="M0 0 C5 2 5 2 10 4 C9.67 5.65 9.34 7.3 9 9 C6 6 3 3 0 0 Z " fill="#FEE6E1" transform="translate(2165,1577)"/>
<path d="M0 0 C0.33 1.32 0.66 2.64 1 4 C-0.3125 5.75 -0.3125 5.75 -2 7 C-2.66 7 -3.32 7 -4 7 C-4.33 7.99 -4.66 8.98 -5 10 C-5.66 9.67 -6.32 9.34 -7 9 C-4.69 6.03 -2.38 3.06 0 0 Z " fill="#FAD8D4" transform="translate(1108,1555)"/>
<path d="M0 0 C2.4375 0.75 2.4375 0.75 5 2 C5.6875 4.0625 5.6875 4.0625 6 6 C6.66 6.33 7.32 6.66 8 7 C7.01 7.33 6.02 7.66 5 8 C0 2.25 0 2.25 0 0 Z " fill="#BE1A1D" transform="translate(421,1554)"/>
<path d="M0 0 C0.33 0.66 0.66 1.32 1 2 C1.66 2.33 2.32 2.66 3 3 C1.02 5.97 1.02 5.97 -1 9 C-2.1875 7.3125 -2.1875 7.3125 -3 5 C-1.625 2.25 -1.625 2.25 0 0 Z " fill="#BF1214" transform="translate(1124,1528)"/>
<path d="M0 0 C0.66 0.66 1.32 1.32 2 2 C1.01 2.495 1.01 2.495 0 3 C-1.13350534 5.01669827 -1.13350534 5.01669827 -2 7 C-2.66 7 -3.32 7 -4 7 C-4.66 8.32 -5.32 9.64 -6 11 C-6.66 10.67 -7.32 10.34 -8 10 C-5.36 6.7 -2.72 3.4 0 0 Z " fill="#B11D1F" transform="translate(1172,1126)"/>
<path d="M0 0 C0.99 0.33 1.98 0.66 3 1 C0.525 5.455 0.525 5.455 -2 10 C-2.33 10 -2.66 10 -3 10 C-2.67 7.69 -2.34 5.38 -2 3 C-1.34 3 -0.68 3 0 3 C0 2.01 0 1.02 0 0 Z " fill="#FDE1DD" transform="translate(388,1056)"/>
<path d="M0 0 C2.97 0 5.94 0 9 0 C6.14521674 1.90318884 4.58058692 2.4619099 1.3125 3.125 C0.50425781 3.29257813 -0.30398438 3.46015625 -1.13671875 3.6328125 C-1.75160156 3.75398438 -2.36648438 3.87515625 -3 4 C-2.67 3.34 -2.34 2.68 -2 2 C-1.34 2 -0.68 2 0 2 C0 1.34 0 0.68 0 0 Z " fill="#B61B1C" transform="translate(874,1705)"/>
<path d="M0 0 C1.65 0.33 3.3 0.66 5 1 C2.11912454 3.40072955 -0.56404834 5.47291037 -4 7 C-4.33 6.34 -4.66 5.68 -5 5 C-4.175 4.54625 -3.35 4.0925 -2.5 3.625 C-1.2625 2.820625 -1.2625 2.820625 0 2 C0 1.34 0 0.68 0 0 Z " fill="#B31313" transform="translate(998,1650)"/>
<path d="M0 0 C2.31 0.66 4.62 1.32 7 2 C7 2.66 7 3.32 7 4 C8.32 4.66 9.64 5.32 11 6 C7.61121488 6 6.60242783 5.35638802 3.8125 3.5625 C2.73935547 2.88380859 2.73935547 2.88380859 1.64453125 2.19140625 C1.10183594 1.79824219 0.55914063 1.40507813 0 1 C0 0.67 0 0.34 0 0 Z " fill="#B5181A" transform="translate(524,1649)"/>
<path d="M0 0 C0.763125 0.309375 1.52625 0.61875 2.3125 0.9375 C4.18789677 1.67893593 6.08684652 2.36228217 8 3 C8.33 4.65 8.66 6.3 9 8 C7.68388323 7.04663979 6.37221039 6.08714226 5.0625 5.125 C4.33160156 4.59132813 3.60070312 4.05765625 2.84765625 3.5078125 C1 2 1 2 0 0 Z " fill="#B41517" transform="translate(472,1609)"/>
<path d="M0 0 C3.37503669 1.1858237 5.64722731 2.27573689 8 5 C7.67 5.99 7.34 6.98 7 8 C5.83035398 6.8572081 4.66435444 5.71068285 3.5 4.5625 C2.8503125 3.92441406 2.200625 3.28632812 1.53125 2.62890625 C0 1 0 1 0 0 Z " fill="#BD2A2E" transform="translate(456,1594)"/>
<path d="M0 0 C2.475 0.495 2.475 0.495 5 1 C5.12375 1.804375 5.2475 2.60875 5.375 3.4375 C5.684375 4.7059375 5.684375 4.7059375 6 6 C6.66 6.33 7.32 6.66 8 7 C7.01 7 6.02 7 5 7 C0 1.53488372 0 1.53488372 0 0 Z " fill="#BA1C1F" transform="translate(447,1584)"/>
<path d="M0 0 C0.33 1.32 0.66 2.64 1 4 C-0.65 5.32 -2.3 6.64 -4 8 C-4.66 7.67 -5.32 7.34 -6 7 C-4.02 4.69 -2.04 2.38 0 0 Z " fill="#B91719" transform="translate(434,997)"/>
<path d="M0 0 C0.99 0.33 1.98 0.66 3 1 C0.69 3.64 -1.62 6.28 -4 9 C-4.33 8.01 -4.66 7.02 -5 6 C-4.34 6 -3.68 6 -3 6 C-2.87625 5.38125 -2.7525 4.7625 -2.625 4.125 C-2 2 -2 2 0 0 Z " fill="#FDE5E3" transform="translate(440,987)"/>
<path d="M0 0 C0 0.66 0 1.32 0 2 C-0.99 2 -1.98 2 -3 2 C-3.33 2.66 -3.66 3.32 -4 4 C-5.64363134 4.72159424 -7.31050386 5.39351421 -9 6 C-9.66 5.34 -10.32 4.68 -11 4 C-9.5437455 3.32880451 -8.08492133 2.66318193 -6.625 2 C-5.81289063 1.62875 -5.00078125 1.2575 -4.1640625 0.875 C-2 0 -2 0 0 0 Z " fill="#FBD8D5" transform="translate(955,1679)"/>
<path d="M0 0 C4.455 2.97 4.455 2.97 9 6 C6 7 6 7 3.375 5.8125 C1 4 1 4 0 0 Z " fill="#FCDEDB" transform="translate(498,1631)"/>
<path d="M0 0 C0.33 0 0.66 0 1 0 C1.1799928 5.21979128 0.97094808 9.07262981 -1 14 C-1.33 14 -1.66 14 -2 14 C-2.21192221 8.80790596 -1.5912689 4.873261 0 0 Z " fill="#B41010" transform="translate(1185,1398)"/>
<path d="M0 0 C3.63 0.33 7.26 0.66 11 1 C11 1.99 11 2.98 11 4 C7.37 3.01 3.74 2.02 0 1 C0 0.67 0 0.34 0 0 Z " fill="#B01011" transform="translate(618,1696)"/>
<path d="M0 0 C1.98 0.66 3.96 1.32 6 2 C6.33 3.98 6.66 5.96 7 8 C4.35247996 5.42215154 2.05567935 3.08351902 0 0 Z " fill="#B71416" transform="translate(432,1568)"/>
<path d="M0 0 C0.66 0 1.32 0 2 0 C0.84414715 3.91211733 -0.35534962 6.8745041 -3 10 C-2.49287967 6.28111761 -1.88391785 3.26545761 0 0 Z " fill="#FEE6E2" transform="translate(373,1084)"/>
<path d="M0 0 C0.6875 1.8125 0.6875 1.8125 1 4 C-0.3125 5.75 -0.3125 5.75 -2 7 C-2.66 7 -3.32 7 -4 7 C-3.43628586 3.73045798 -2.50037734 2.17424117 0 0 Z " fill="#C02325" transform="translate(458,971)"/>
<path d="M0 0 C1.32 0.33 2.64 0.66 4 1 C1.03 2.65 -1.94 4.3 -5 6 C-5 5.01 -5 4.02 -5 3 C-3.35 2.67 -1.7 2.34 0 2 C0 1.34 0 0.68 0 0 Z " fill="#FDE5E1" transform="translate(539,906)"/>
<path d="M0 0 C0 0.99 0 1.98 0 3 C-4.455 4.485 -4.455 4.485 -9 6 C-3.15384615 0 -3.15384615 0 0 0 Z " fill="#B31F1F" transform="translate(2087,1576)"/>
<path d="M0 0 C1.65 0 3.3 0 5 0 C5.33 1.98 5.66 3.96 6 6 C3.97945196 4.35830472 1.97956942 2.69088222 0 1 C0 0.67 0 0.34 0 0 Z " fill="#B70C0C" transform="translate(441,1578)"/>
<path d="M0 0 C0.33 0.66 0.66 1.32 1 2 C-0.91522803 6.03205902 -1.85351878 6.92675939 -6 9 C-4.02 6.03 -2.04 3.06 0 0 Z " fill="#FEE7E6" transform="translate(1119,1541)"/>
<path d="M0 0 C1.65 0 3.3 0 5 0 C5 2.31 5 4.62 5 7 C3.29115995 5.37660195 1.62553283 3.70680947 0 2 C0 1.34 0 0.68 0 0 Z " fill="#B81416" transform="translate(409,1538)"/>
<path d="M0 0 C0.66 0 1.32 0 2 0 C3.49821059 3.37097383 4 5.20442119 4 9 C3.34 9 2.68 9 2 9 C1.34 6.03 0.68 3.06 0 0 Z " fill="#B31115" transform="translate(351,1425)"/>
<path d="M0 0 C2.18975773 3.28463659 2.99806563 6.20696275 4 10 C3.01 10.495 3.01 10.495 2 11 C0.80712589 7.12315913 0 4.08378077 0 0 Z " fill="#B8282A" transform="translate(1174,1129)"/>
<path d="M0 0 C0.66 0.99 1.32 1.98 2 3 C0.35 4.32 -1.3 5.64 -3 7 C-3.66 6.67 -4.32 6.34 -5 6 C-2.25 1.125 -2.25 1.125 0 0 Z " fill="#FEE7E6" transform="translate(934,969)"/>
<path d="M0 0 C-2.35968744 2.09749995 -3.54616994 2.96905704 -6.75 3.1875 C-7.86375 3.0946875 -7.86375 3.0946875 -9 3 C-9 2.34 -9 1.68 -9 1 C-2.25 -1.125 -2.25 -1.125 0 0 Z " fill="#FCDADA" transform="translate(2110,1622)"/>
<path d="M0 0 C3.36720387 1.39332574 4.9859524 2.9789286 7 6 C5.35 5.67 3.7 5.34 2 5 C2 4.01 2 3.02 2 2 C1.34 2 0.68 2 0 2 C0 1.34 0 0.68 0 0 Z " fill="#F6CACF" transform="translate(442,1581)"/>
<path d="M0 0 C0.33 0 0.66 0 1 0 C1 1.98 1 3.96 1 6 C-0.98 6.99 -0.98 6.99 -3 8 C-2.01 5.36 -1.02 2.72 0 0 Z " fill="#B91A1D" transform="translate(2224,1578)"/>
<path d="M0 0 C1.2380014 3.57644848 0.74926071 6.33694766 0 10 C-2 7 -2 7 -1.6875 3.875 C-1 1 -1 1 0 0 Z " fill="#FEECE8" transform="translate(334,1199)"/>
<path d="M0 0 C1.98 0.66 3.96 1.32 6 2 C6.33 3.65 6.66 5.3 7 7 C5.83040013 6.02433888 4.66438823 5.044375 3.5 4.0625 C2.8503125 3.51722656 2.200625 2.97195313 1.53125 2.41015625 C1.0259375 1.94480469 0.520625 1.47945312 0 1 C0 0.67 0 0.34 0 0 Z " fill="#FEE5E3" transform="translate(954,1145)"/>
<path d="M0 0 C0.33 0.99 0.66 1.98 1 3 C-0.65 4.65 -2.3 6.3 -4 8 C-4.66 7.67 -5.32 7.34 -6 7 C-4.02 4.69 -2.04 2.38 0 0 Z " fill="#FDDCDB" transform="translate(947,950)"/>
</svg>
